<svg height="335.889531pt" version="1.1" viewBox="0 0 960.38 335.889531" width="960.38pt" xmlns="http://www.w3.org/2000/svg" xmlns:xlink="http://www.w3.org/1999/xlink">
 <defs>
  <style type="text/css">
*{stroke-linecap:butt;stroke-linejoin:round;}
  </style>
 </defs>
 <g id="figure_1">
  <g id="patch_1">
   <path d="M 0 335.889531 
L 960.38 335.889531 
L 960.38 0 
L 0 0 
z
" style="fill:none;"></path>
  </g>
  <g id="axes_1">
   <g id="patch_2">
    <path d="M 60.38 296.397656 
L 466.198182 296.397656 
L 466.198182 24.597656 
L 60.38 24.597656 
z
" style="fill:#ffffff;"></path>
   </g>
   <g id="matplotlib.axis_1">
    <g id="xtick_1">
     <g id="line2d_1">
      <defs>
       <path d="M 0 0 
L 0 3.5 
" id="m08f540f715" style="stroke:#000000;stroke-width:0.8;"></path>
      </defs>
      <g>
       <use style="stroke:#000000;stroke-width:0.8;" x="142.496011" xlink:href="#m08f540f715" y="296.397656"></use>
      </g>
     </g>
     <g id="text_1">
      <!-- $\mathdefault{10^{4}}$ -->
      <defs>
       <path d="M 12.40625 8.296875 
L 28.515625 8.296875 
L 28.515625 63.921875 
L 10.984375 60.40625 
L 10.984375 69.390625 
L 28.421875 72.90625 
L 38.28125 72.90625 
L 38.28125 8.296875 
L 54.390625 8.296875 
L 54.390625 0 
L 12.40625 0 
z
" id="DejaVuSans-49"></path>
       <path d="M 31.78125 66.40625 
Q 24.171875 66.40625 20.328125 58.90625 
Q 16.5 51.421875 16.5 36.375 
Q 16.5 21.390625 20.328125 13.890625 
Q 24.171875 6.390625 31.78125 6.390625 
Q 39.453125 6.390625 43.28125 13.890625 
Q 47.125 21.390625 47.125 36.375 
Q 47.125 51.421875 43.28125 58.90625 
Q 39.453125 66.40625 31.78125 66.40625 
z
M 31.78125 74.21875 
Q 44.046875 74.21875 50.515625 64.515625 
Q 56.984375 54.828125 56.984375 36.375 
Q 56.984375 17.96875 50.515625 8.265625 
Q 44.046875 -1.421875 31.78125 -1.421875 
Q 19.53125 -1.421875 13.0625 8.265625 
Q 6.59375 17.96875 6.59375 36.375 
Q 6.59375 54.828125 13.0625 64.515625 
Q 19.53125 74.21875 31.78125 74.21875 
z
" id="DejaVuSans-48"></path>
       <path d="M 37.796875 64.3125 
L 12.890625 25.390625 
L 37.796875 25.390625 
z
M 35.203125 72.90625 
L 47.609375 72.90625 
L 47.609375 25.390625 
L 58.015625 25.390625 
L 58.015625 17.1875 
L 47.609375 17.1875 
L 47.609375 0 
L 37.796875 0 
L 37.796875 17.1875 
L 4.890625 17.1875 
L 4.890625 26.703125 
z
" id="DejaVuSans-52"></path>
      </defs>
      <g transform="translate(133.696011 310.996094)scale(0.1 -0.1)">
       <use transform="translate(0 0.684375)" xlink:href="#DejaVuSans-49"></use>
       <use transform="translate(63.623047 0.684375)" xlink:href="#DejaVuSans-48"></use>
       <use transform="translate(128.203125 38.965625)scale(0.7)" xlink:href="#DejaVuSans-52"></use>
      </g>
     </g>
    </g>
    <g id="xtick_2">
     <g id="line2d_2">
      <g>
       <use style="stroke:#000000;stroke-width:0.8;" x="227.610571" xlink:href="#m08f540f715" y="296.397656"></use>
      </g>
     </g>
     <g id="text_2">
      <!-- $\mathdefault{10^{5}}$ -->
      <defs>
       <path d="M 10.796875 72.90625 
L 49.515625 72.90625 
L 49.515625 64.59375 
L 19.828125 64.59375 
L 19.828125 46.734375 
Q 21.96875 47.46875 24.109375 47.828125 
Q 26.265625 48.1875 28.421875 48.1875 
Q 40.625 48.1875 47.75 41.5 
Q 54.890625 34.8125 54.890625 23.390625 
Q 54.890625 11.625 47.5625 5.09375 
Q 40.234375 -1.421875 26.90625 -1.421875 
Q 22.3125 -1.421875 17.546875 -0.640625 
Q 12.796875 0.140625 7.71875 1.703125 
L 7.71875 11.625 
Q 12.109375 9.234375 16.796875 8.0625 
Q 21.484375 6.890625 26.703125 6.890625 
Q 35.15625 6.890625 40.078125 11.328125 
Q 45.015625 15.765625 45.015625 23.390625 
Q 45.015625 31 40.078125 35.4375 
Q 35.15625 39.890625 26.703125 39.890625 
Q 22.75 39.890625 18.8125 39.015625 
Q 14.890625 38.140625 10.796875 36.28125 
z
" id="DejaVuSans-53"></path>
      </defs>
      <g transform="translate(218.810571 310.996094)scale(0.1 -0.1)">
       <use transform="translate(0 0.684375)" xlink:href="#DejaVuSans-49"></use>
       <use transform="translate(63.623047 0.684375)" xlink:href="#DejaVuSans-48"></use>
       <use transform="translate(128.203125 38.965625)scale(0.7)" xlink:href="#DejaVuSans-53"></use>
      </g>
     </g>
    </g>
    <g id="xtick_3">
     <g id="line2d_3">
      <g>
       <use style="stroke:#000000;stroke-width:0.8;" x="312.72513" xlink:href="#m08f540f715" y="296.397656"></use>
      </g>
     </g>
     <g id="text_3">
      <!-- $\mathdefault{10^{6}}$ -->
      <defs>
       <path d="M 33.015625 40.375 
Q 26.375 40.375 22.484375 35.828125 
Q 18.609375 31.296875 18.609375 23.390625 
Q 18.609375 15.53125 22.484375 10.953125 
Q 26.375 6.390625 33.015625 6.390625 
Q 39.65625 6.390625 43.53125 10.953125 
Q 47.40625 15.53125 47.40625 23.390625 
Q 47.40625 31.296875 43.53125 35.828125 
Q 39.65625 40.375 33.015625 40.375 
z
M 52.59375 71.296875 
L 52.59375 62.3125 
Q 48.875 64.0625 45.09375 64.984375 
Q 41.3125 65.921875 37.59375 65.921875 
Q 27.828125 65.921875 22.671875 59.328125 
Q 17.53125 52.734375 16.796875 39.40625 
Q 19.671875 43.65625 24.015625 45.921875 
Q 28.375 48.1875 33.59375 48.1875 
Q 44.578125 48.1875 50.953125 41.515625 
Q 57.328125 34.859375 57.328125 23.390625 
Q 57.328125 12.15625 50.6875 5.359375 
Q 44.046875 -1.421875 33.015625 -1.421875 
Q 20.359375 -1.421875 13.671875 8.265625 
Q 6.984375 17.96875 6.984375 36.375 
Q 6.984375 53.65625 15.1875 63.9375 
Q 23.390625 74.21875 37.203125 74.21875 
Q 40.921875 74.21875 44.703125 73.484375 
Q 48.484375 72.75 52.59375 71.296875 
z
" id="DejaVuSans-54"></path>
      </defs>
      <g transform="translate(303.92513 310.996094)scale(0.1 -0.1)">
       <use transform="translate(0 0.765625)" xlink:href="#DejaVuSans-49"></use>
       <use transform="translate(63.623047 0.765625)" xlink:href="#DejaVuSans-48"></use>
       <use transform="translate(128.203125 39.046875)scale(0.7)" xlink:href="#DejaVuSans-54"></use>
      </g>
     </g>
    </g>
    <g id="xtick_4">
     <g id="line2d_4">
      <g>
       <use style="stroke:#000000;stroke-width:0.8;" x="397.839689" xlink:href="#m08f540f715" y="296.397656"></use>
      </g>
     </g>
     <g id="text_4">
      <!-- $\mathdefault{10^{7}}$ -->
      <defs>
       <path d="M 8.203125 72.90625 
L 55.078125 72.90625 
L 55.078125 68.703125 
L 28.609375 0 
L 18.3125 0 
L 43.21875 64.59375 
L 8.203125 64.59375 
z
" id="DejaVuSans-55"></path>
      </defs>
      <g transform="translate(389.039689 310.996094)scale(0.1 -0.1)">
       <use transform="translate(0 0.684375)" xlink:href="#DejaVuSans-49"></use>
       <use transform="translate(63.623047 0.684375)" xlink:href="#DejaVuSans-48"></use>
       <use transform="translate(128.203125 38.965625)scale(0.7)" xlink:href="#DejaVuSans-55"></use>
      </g>
     </g>
    </g>
    <g id="xtick_5">
     <g id="line2d_5">
      <defs>
       <path d="M 0 0 
L 0 2 
" id="m650044c311" style="stroke:#000000;stroke-width:0.6;"></path>
      </defs>
      <g>
       <use style="stroke:#000000;stroke-width:0.6;" x="83.003487" xlink:href="#m650044c311" y="296.397656"></use>
      </g>
     </g>
    </g>
    <g id="xtick_6">
     <g id="line2d_6">
      <g>
       <use style="stroke:#000000;stroke-width:0.6;" x="97.991417" xlink:href="#m650044c311" y="296.397656"></use>
      </g>
     </g>
    </g>
    <g id="xtick_7">
     <g id="line2d_7">
      <g>
       <use style="stroke:#000000;stroke-width:0.6;" x="108.625523" xlink:href="#m650044c311" y="296.397656"></use>
      </g>
     </g>
    </g>
    <g id="xtick_8">
     <g id="line2d_8">
      <g>
       <use style="stroke:#000000;stroke-width:0.6;" x="116.873976" xlink:href="#m650044c311" y="296.397656"></use>
      </g>
     </g>
    </g>
    <g id="xtick_9">
     <g id="line2d_9">
      <g>
       <use style="stroke:#000000;stroke-width:0.6;" x="123.613453" xlink:href="#m650044c311" y="296.397656"></use>
      </g>
     </g>
    </g>
    <g id="xtick_10">
     <g id="line2d_10">
      <g>
       <use style="stroke:#000000;stroke-width:0.6;" x="129.311599" xlink:href="#m650044c311" y="296.397656"></use>
      </g>
     </g>
    </g>
    <g id="xtick_11">
     <g id="line2d_11">
      <g>
       <use style="stroke:#000000;stroke-width:0.6;" x="134.247558" xlink:href="#m650044c311" y="296.397656"></use>
      </g>
     </g>
    </g>
    <g id="xtick_12">
     <g id="line2d_12">
      <g>
       <use style="stroke:#000000;stroke-width:0.6;" x="138.601383" xlink:href="#m650044c311" y="296.397656"></use>
      </g>
     </g>
    </g>
    <g id="xtick_13">
     <g id="line2d_13">
      <g>
       <use style="stroke:#000000;stroke-width:0.6;" x="168.118047" xlink:href="#m650044c311" y="296.397656"></use>
      </g>
     </g>
    </g>
    <g id="xtick_14">
     <g id="line2d_14">
      <g>
       <use style="stroke:#000000;stroke-width:0.6;" x="183.105977" xlink:href="#m650044c311" y="296.397656"></use>
      </g>
     </g>
    </g>
    <g id="xtick_15">
     <g id="line2d_15">
      <g>
       <use style="stroke:#000000;stroke-width:0.6;" x="193.740082" xlink:href="#m650044c311" y="296.397656"></use>
      </g>
     </g>
    </g>
    <g id="xtick_16">
     <g id="line2d_16">
      <g>
       <use style="stroke:#000000;stroke-width:0.6;" x="201.988535" xlink:href="#m650044c311" y="296.397656"></use>
      </g>
     </g>
    </g>
    <g id="xtick_17">
     <g id="line2d_17">
      <g>
       <use style="stroke:#000000;stroke-width:0.6;" x="208.728012" xlink:href="#m650044c311" y="296.397656"></use>
      </g>
     </g>
    </g>
    <g id="xtick_18">
     <g id="line2d_18">
      <g>
       <use style="stroke:#000000;stroke-width:0.6;" x="214.426159" xlink:href="#m650044c311" y="296.397656"></use>
      </g>
     </g>
    </g>
    <g id="xtick_19">
     <g id="line2d_19">
      <g>
       <use style="stroke:#000000;stroke-width:0.6;" x="219.362118" xlink:href="#m650044c311" y="296.397656"></use>
      </g>
     </g>
    </g>
    <g id="xtick_20">
     <g id="line2d_20">
      <g>
       <use style="stroke:#000000;stroke-width:0.6;" x="223.715942" xlink:href="#m650044c311" y="296.397656"></use>
      </g>
     </g>
    </g>
    <g id="xtick_21">
     <g id="line2d_21">
      <g>
       <use style="stroke:#000000;stroke-width:0.6;" x="253.232606" xlink:href="#m650044c311" y="296.397656"></use>
      </g>
     </g>
    </g>
    <g id="xtick_22">
     <g id="line2d_22">
      <g>
       <use style="stroke:#000000;stroke-width:0.6;" x="268.220536" xlink:href="#m650044c311" y="296.397656"></use>
      </g>
     </g>
    </g>
    <g id="xtick_23">
     <g id="line2d_23">
      <g>
       <use style="stroke:#000000;stroke-width:0.6;" x="278.854641" xlink:href="#m650044c311" y="296.397656"></use>
      </g>
     </g>
    </g>
    <g id="xtick_24">
     <g id="line2d_24">
      <g>
       <use style="stroke:#000000;stroke-width:0.6;" x="287.103095" xlink:href="#m650044c311" y="296.397656"></use>
      </g>
     </g>
    </g>
    <g id="xtick_25">
     <g id="line2d_25">
      <g>
       <use style="stroke:#000000;stroke-width:0.6;" x="293.842571" xlink:href="#m650044c311" y="296.397656"></use>
      </g>
     </g>
    </g>
    <g id="xtick_26">
     <g id="line2d_26">
      <g>
       <use style="stroke:#000000;stroke-width:0.6;" x="299.540718" xlink:href="#m650044c311" y="296.397656"></use>
      </g>
     </g>
    </g>
    <g id="xtick_27">
     <g id="line2d_27">
      <g>
       <use style="stroke:#000000;stroke-width:0.6;" x="304.476677" xlink:href="#m650044c311" y="296.397656"></use>
      </g>
     </g>
    </g>
    <g id="xtick_28">
     <g id="line2d_28">
      <g>
       <use style="stroke:#000000;stroke-width:0.6;" x="308.830501" xlink:href="#m650044c311" y="296.397656"></use>
      </g>
     </g>
    </g>
    <g id="xtick_29">
     <g id="line2d_29">
      <g>
       <use style="stroke:#000000;stroke-width:0.6;" x="338.347165" xlink:href="#m650044c311" y="296.397656"></use>
      </g>
     </g>
    </g>
    <g id="xtick_30">
     <g id="line2d_30">
      <g>
       <use style="stroke:#000000;stroke-width:0.6;" x="353.335095" xlink:href="#m650044c311" y="296.397656"></use>
      </g>
     </g>
    </g>
    <g id="xtick_31">
     <g id="line2d_31">
      <g>
       <use style="stroke:#000000;stroke-width:0.6;" x="363.969201" xlink:href="#m650044c311" y="296.397656"></use>
      </g>
     </g>
    </g>
    <g id="xtick_32">
     <g id="line2d_32">
      <g>
       <use style="stroke:#000000;stroke-width:0.6;" x="372.217654" xlink:href="#m650044c311" y="296.397656"></use>
      </g>
     </g>
    </g>
    <g id="xtick_33">
     <g id="line2d_33">
      <g>
       <use style="stroke:#000000;stroke-width:0.6;" x="378.957131" xlink:href="#m650044c311" y="296.397656"></use>
      </g>
     </g>
    </g>
    <g id="xtick_34">
     <g id="line2d_34">
      <g>
       <use style="stroke:#000000;stroke-width:0.6;" x="384.655277" xlink:href="#m650044c311" y="296.397656"></use>
      </g>
     </g>
    </g>
    <g id="xtick_35">
     <g id="line2d_35">
      <g>
       <use style="stroke:#000000;stroke-width:0.6;" x="389.591236" xlink:href="#m650044c311" y="296.397656"></use>
      </g>
     </g>
    </g>
    <g id="xtick_36">
     <g id="line2d_36">
      <g>
       <use style="stroke:#000000;stroke-width:0.6;" x="393.945061" xlink:href="#m650044c311" y="296.397656"></use>
      </g>
     </g>
    </g>
    <g id="xtick_37">
     <g id="line2d_37">
      <g>
       <use style="stroke:#000000;stroke-width:0.6;" x="423.461725" xlink:href="#m650044c311" y="296.397656"></use>
      </g>
     </g>
    </g>
    <g id="xtick_38">
     <g id="line2d_38">
      <g>
       <use style="stroke:#000000;stroke-width:0.6;" x="438.449655" xlink:href="#m650044c311" y="296.397656"></use>
      </g>
     </g>
    </g>
    <g id="xtick_39">
     <g id="line2d_39">
      <g>
       <use style="stroke:#000000;stroke-width:0.6;" x="449.08376" xlink:href="#m650044c311" y="296.397656"></use>
      </g>
     </g>
    </g>
    <g id="xtick_40">
     <g id="line2d_40">
      <g>
       <use style="stroke:#000000;stroke-width:0.6;" x="457.332213" xlink:href="#m650044c311" y="296.397656"></use>
      </g>
     </g>
    </g>
    <g id="xtick_41">
     <g id="line2d_41">
      <g>
       <use style="stroke:#000000;stroke-width:0.6;" x="464.07169" xlink:href="#m650044c311" y="296.397656"></use>
      </g>
     </g>
    </g>
    <g id="text_5">
     <!-- $n$ -->
     <defs>
      <path d="M 55.71875 33.015625 
L 49.3125 0 
L 40.28125 0 
L 46.6875 32.671875 
Q 47.125 34.96875 47.359375 36.71875 
Q 47.609375 38.484375 47.609375 39.5 
Q 47.609375 43.609375 45.015625 45.890625 
Q 42.4375 48.1875 37.796875 48.1875 
Q 30.5625 48.1875 25.34375 43.375 
Q 20.125 38.578125 18.5 30.328125 
L 12.5 0 
L 3.515625 0 
L 14.109375 54.6875 
L 23.09375 54.6875 
L 21.296875 46.09375 
Q 25.046875 50.828125 30.3125 53.40625 
Q 35.59375 56 41.40625 56 
Q 48.640625 56 52.609375 52.09375 
Q 56.59375 48.1875 56.59375 41.109375 
Q 56.59375 39.359375 56.375 37.359375 
Q 56.15625 35.359375 55.71875 33.015625 
z
" id="DejaVuSans-Oblique-110"></path>
     </defs>
     <g transform="translate(259.449091 326.193906)scale(0.12 -0.12)">
      <use xlink:href="#DejaVuSans-Oblique-110"></use>
     </g>
    </g>
   </g>
   <g id="matplotlib.axis_2">
    <g id="ytick_1">
     <g id="line2d_42">
      <defs>
       <path d="M 0 0 
L -3.5 0 
" id="m46bdc5ad6f" style="stroke:#000000;stroke-width:0.8;"></path>
      </defs>
      <g>
       <use style="stroke:#000000;stroke-width:0.8;" x="60.38" xlink:href="#m46bdc5ad6f" y="284.006876"></use>
      </g>
     </g>
     <g id="text_6">
      <!-- $\mathdefault{10^{-10}}$ -->
      <defs>
       <path d="M 10.59375 35.5 
L 73.1875 35.5 
L 73.1875 27.203125 
L 10.59375 27.203125 
z
" id="DejaVuSans-8722"></path>
      </defs>
      <g transform="translate(25.48 287.806095)scale(0.1 -0.1)">
       <use transform="translate(0 0.765625)" xlink:href="#DejaVuSans-49"></use>
       <use transform="translate(63.623047 0.765625)" xlink:href="#DejaVuSans-48"></use>
       <use transform="translate(128.203125 39.046875)scale(0.7)" xlink:href="#DejaVuSans-8722"></use>
       <use transform="translate(186.855469 39.046875)scale(0.7)" xlink:href="#DejaVuSans-49"></use>
       <use transform="translate(231.391602 39.046875)scale(0.7)" xlink:href="#DejaVuSans-48"></use>
      </g>
     </g>
    </g>
    <g id="ytick_2">
     <g id="line2d_43">
      <g>
       <use style="stroke:#000000;stroke-width:0.8;" x="60.38" xlink:href="#m46bdc5ad6f" y="242.483075"></use>
      </g>
     </g>
     <g id="text_7">
      <!-- $\mathdefault{10^{-9}}$ -->
      <defs>
       <path d="M 10.984375 1.515625 
L 10.984375 10.5 
Q 14.703125 8.734375 18.5 7.8125 
Q 22.3125 6.890625 25.984375 6.890625 
Q 35.75 6.890625 40.890625 13.453125 
Q 46.046875 20.015625 46.78125 33.40625 
Q 43.953125 29.203125 39.59375 26.953125 
Q 35.25 24.703125 29.984375 24.703125 
Q 19.046875 24.703125 12.671875 31.3125 
Q 6.296875 37.9375 6.296875 49.421875 
Q 6.296875 60.640625 12.9375 67.421875 
Q 19.578125 74.21875 30.609375 74.21875 
Q 43.265625 74.21875 49.921875 64.515625 
Q 56.59375 54.828125 56.59375 36.375 
Q 56.59375 19.140625 48.40625 8.859375 
Q 40.234375 -1.421875 26.421875 -1.421875 
Q 22.703125 -1.421875 18.890625 -0.6875 
Q 15.09375 0.046875 10.984375 1.515625 
z
M 30.609375 32.421875 
Q 37.25 32.421875 41.125 36.953125 
Q 45.015625 41.5 45.015625 49.421875 
Q 45.015625 57.28125 41.125 61.84375 
Q 37.25 66.40625 30.609375 66.40625 
Q 23.96875 66.40625 20.09375 61.84375 
Q 16.21875 57.28125 16.21875 49.421875 
Q 16.21875 41.5 20.09375 36.953125 
Q 23.96875 32.421875 30.609375 32.421875 
z
" id="DejaVuSans-57"></path>
      </defs>
      <g transform="translate(29.88 246.282293)scale(0.1 -0.1)">
       <use transform="translate(0 0.765625)" xlink:href="#DejaVuSans-49"></use>
       <use transform="translate(63.623047 0.765625)" xlink:href="#DejaVuSans-48"></use>
       <use transform="translate(128.203125 39.046875)scale(0.7)" xlink:href="#DejaVuSans-8722"></use>
       <use transform="translate(186.855469 39.046875)scale(0.7)" xlink:href="#DejaVuSans-57"></use>
      </g>
     </g>
    </g>
    <g id="ytick_3">
     <g id="line2d_44">
      <g>
       <use style="stroke:#000000;stroke-width:0.8;" x="60.38" xlink:href="#m46bdc5ad6f" y="200.959273"></use>
      </g>
     </g>
     <g id="text_8">
      <!-- $\mathdefault{10^{-8}}$ -->
      <defs>
       <path d="M 31.78125 34.625 
Q 24.75 34.625 20.71875 30.859375 
Q 16.703125 27.09375 16.703125 20.515625 
Q 16.703125 13.921875 20.71875 10.15625 
Q 24.75 6.390625 31.78125 6.390625 
Q 38.8125 6.390625 42.859375 10.171875 
Q 46.921875 13.96875 46.921875 20.515625 
Q 46.921875 27.09375 42.890625 30.859375 
Q 38.875 34.625 31.78125 34.625 
z
M 21.921875 38.8125 
Q 15.578125 40.375 12.03125 44.71875 
Q 8.5 49.078125 8.5 55.328125 
Q 8.5 64.0625 14.71875 69.140625 
Q 20.953125 74.21875 31.78125 74.21875 
Q 42.671875 74.21875 48.875 69.140625 
Q 55.078125 64.0625 55.078125 55.328125 
Q 55.078125 49.078125 51.53125 44.71875 
Q 48 40.375 41.703125 38.8125 
Q 48.828125 37.15625 52.796875 32.3125 
Q 56.78125 27.484375 56.78125 20.515625 
Q 56.78125 9.90625 50.3125 4.234375 
Q 43.84375 -1.421875 31.78125 -1.421875 
Q 19.734375 -1.421875 13.25 4.234375 
Q 6.78125 9.90625 6.78125 20.515625 
Q 6.78125 27.484375 10.78125 32.3125 
Q 14.796875 37.15625 21.921875 38.8125 
z
M 18.3125 54.390625 
Q 18.3125 48.734375 21.84375 45.5625 
Q 25.390625 42.390625 31.78125 42.390625 
Q 38.140625 42.390625 41.71875 45.5625 
Q 45.3125 48.734375 45.3125 54.390625 
Q 45.3125 60.0625 41.71875 63.234375 
Q 38.140625 66.40625 31.78125 66.40625 
Q 25.390625 66.40625 21.84375 63.234375 
Q 18.3125 60.0625 18.3125 54.390625 
z
" id="DejaVuSans-56"></path>
      </defs>
      <g transform="translate(29.88 204.758492)scale(0.1 -0.1)">
       <use transform="translate(0 0.765625)" xlink:href="#DejaVuSans-49"></use>
       <use transform="translate(63.623047 0.765625)" xlink:href="#DejaVuSans-48"></use>
       <use transform="translate(128.203125 39.046875)scale(0.7)" xlink:href="#DejaVuSans-8722"></use>
       <use transform="translate(186.855469 39.046875)scale(0.7)" xlink:href="#DejaVuSans-56"></use>
      </g>
     </g>
    </g>
    <g id="ytick_4">
     <g id="line2d_45">
      <g>
       <use style="stroke:#000000;stroke-width:0.8;" x="60.38" xlink:href="#m46bdc5ad6f" y="159.435472"></use>
      </g>
     </g>
     <g id="text_9">
      <!-- $\mathdefault{10^{-7}}$ -->
      <g transform="translate(29.88 163.23469)scale(0.1 -0.1)">
       <use transform="translate(0 0.684375)" xlink:href="#DejaVuSans-49"></use>
       <use transform="translate(63.623047 0.684375)" xlink:href="#DejaVuSans-48"></use>
       <use transform="translate(128.203125 38.965625)scale(0.7)" xlink:href="#DejaVuSans-8722"></use>
       <use transform="translate(186.855469 38.965625)scale(0.7)" xlink:href="#DejaVuSans-55"></use>
      </g>
     </g>
    </g>
    <g id="ytick_5">
     <g id="line2d_46">
      <g>
       <use style="stroke:#000000;stroke-width:0.8;" x="60.38" xlink:href="#m46bdc5ad6f" y="117.91167"></use>
      </g>
     </g>
     <g id="text_10">
      <!-- $\mathdefault{10^{-6}}$ -->
      <g transform="translate(29.88 121.710889)scale(0.1 -0.1)">
       <use transform="translate(0 0.765625)" xlink:href="#DejaVuSans-49"></use>
       <use transform="translate(63.623047 0.765625)" xlink:href="#DejaVuSans-48"></use>
       <use transform="translate(128.203125 39.046875)scale(0.7)" xlink:href="#DejaVuSans-8722"></use>
       <use transform="translate(186.855469 39.046875)scale(0.7)" xlink:href="#DejaVuSans-54"></use>
      </g>
     </g>
    </g>
    <g id="ytick_6">
     <g id="line2d_47">
      <g>
       <use style="stroke:#000000;stroke-width:0.8;" x="60.38" xlink:href="#m46bdc5ad6f" y="76.387869"></use>
      </g>
     </g>
     <g id="text_11">
      <!-- $\mathdefault{10^{-5}}$ -->
      <g transform="translate(29.88 80.187087)scale(0.1 -0.1)">
       <use transform="translate(0 0.684375)" xlink:href="#DejaVuSans-49"></use>
       <use transform="translate(63.623047 0.684375)" xlink:href="#DejaVuSans-48"></use>
       <use transform="translate(128.203125 38.965625)scale(0.7)" xlink:href="#DejaVuSans-8722"></use>
       <use transform="translate(186.855469 38.965625)scale(0.7)" xlink:href="#DejaVuSans-53"></use>
      </g>
     </g>
    </g>
    <g id="ytick_7">
     <g id="line2d_48">
      <g>
       <use style="stroke:#000000;stroke-width:0.8;" x="60.38" xlink:href="#m46bdc5ad6f" y="34.864067"></use>
      </g>
     </g>
     <g id="text_12">
      <!-- $\mathdefault{10^{-4}}$ -->
      <g transform="translate(29.88 38.663286)scale(0.1 -0.1)">
       <use transform="translate(0 0.684375)" xlink:href="#DejaVuSans-49"></use>
       <use transform="translate(63.623047 0.684375)" xlink:href="#DejaVuSans-48"></use>
       <use transform="translate(128.203125 38.965625)scale(0.7)" xlink:href="#DejaVuSans-8722"></use>
       <use transform="translate(186.855469 38.965625)scale(0.7)" xlink:href="#DejaVuSans-52"></use>
      </g>
     </g>
    </g>
    <g id="ytick_8">
     <g id="line2d_49">
      <defs>
       <path d="M 0 0 
L -2 0 
" id="m5507beae32" style="stroke:#000000;stroke-width:0.6;"></path>
      </defs>
      <g>
       <use style="stroke:#000000;stroke-width:0.6;" x="60.38" xlink:href="#m5507beae32" y="293.21888"></use>
      </g>
     </g>
    </g>
    <g id="ytick_9">
     <g id="line2d_50">
      <g>
       <use style="stroke:#000000;stroke-width:0.6;" x="60.38" xlink:href="#m5507beae32" y="290.438994"></use>
      </g>
     </g>
    </g>
    <g id="ytick_10">
     <g id="line2d_51">
      <g>
       <use style="stroke:#000000;stroke-width:0.6;" x="60.38" xlink:href="#m5507beae32" y="288.030948"></use>
      </g>
     </g>
    </g>
    <g id="ytick_11">
     <g id="line2d_52">
      <g>
       <use style="stroke:#000000;stroke-width:0.6;" x="60.38" xlink:href="#m5507beae32" y="285.906901"></use>
      </g>
     </g>
    </g>
    <g id="ytick_12">
     <g id="line2d_53">
      <g>
       <use style="stroke:#000000;stroke-width:0.6;" x="60.38" xlink:href="#m5507beae32" y="271.506966"></use>
      </g>
     </g>
    </g>
    <g id="ytick_13">
     <g id="line2d_54">
      <g>
       <use style="stroke:#000000;stroke-width:0.6;" x="60.38" xlink:href="#m5507beae32" y="264.194988"></use>
      </g>
     </g>
    </g>
    <g id="ytick_14">
     <g id="line2d_55">
      <g>
       <use style="stroke:#000000;stroke-width:0.6;" x="60.38" xlink:href="#m5507beae32" y="259.007057"></use>
      </g>
     </g>
    </g>
    <g id="ytick_15">
     <g id="line2d_56">
      <g>
       <use style="stroke:#000000;stroke-width:0.6;" x="60.38" xlink:href="#m5507beae32" y="254.982984"></use>
      </g>
     </g>
    </g>
    <g id="ytick_16">
     <g id="line2d_57">
      <g>
       <use style="stroke:#000000;stroke-width:0.6;" x="60.38" xlink:href="#m5507beae32" y="251.695078"></use>
      </g>
     </g>
    </g>
    <g id="ytick_17">
     <g id="line2d_58">
      <g>
       <use style="stroke:#000000;stroke-width:0.6;" x="60.38" xlink:href="#m5507beae32" y="248.915193"></use>
      </g>
     </g>
    </g>
    <g id="ytick_18">
     <g id="line2d_59">
      <g>
       <use style="stroke:#000000;stroke-width:0.6;" x="60.38" xlink:href="#m5507beae32" y="246.507147"></use>
      </g>
     </g>
    </g>
    <g id="ytick_19">
     <g id="line2d_60">
      <g>
       <use style="stroke:#000000;stroke-width:0.6;" x="60.38" xlink:href="#m5507beae32" y="244.3831"></use>
      </g>
     </g>
    </g>
    <g id="ytick_20">
     <g id="line2d_61">
      <g>
       <use style="stroke:#000000;stroke-width:0.6;" x="60.38" xlink:href="#m5507beae32" y="229.983165"></use>
      </g>
     </g>
    </g>
    <g id="ytick_21">
     <g id="line2d_62">
      <g>
       <use style="stroke:#000000;stroke-width:0.6;" x="60.38" xlink:href="#m5507beae32" y="222.671186"></use>
      </g>
     </g>
    </g>
    <g id="ytick_22">
     <g id="line2d_63">
      <g>
       <use style="stroke:#000000;stroke-width:0.6;" x="60.38" xlink:href="#m5507beae32" y="217.483255"></use>
      </g>
     </g>
    </g>
    <g id="ytick_23">
     <g id="line2d_64">
      <g>
       <use style="stroke:#000000;stroke-width:0.6;" x="60.38" xlink:href="#m5507beae32" y="213.459183"></use>
      </g>
     </g>
    </g>
    <g id="ytick_24">
     <g id="line2d_65">
      <g>
       <use style="stroke:#000000;stroke-width:0.6;" x="60.38" xlink:href="#m5507beae32" y="210.171277"></use>
      </g>
     </g>
    </g>
    <g id="ytick_25">
     <g id="line2d_66">
      <g>
       <use style="stroke:#000000;stroke-width:0.6;" x="60.38" xlink:href="#m5507beae32" y="207.391391"></use>
      </g>
     </g>
    </g>
    <g id="ytick_26">
     <g id="line2d_67">
      <g>
       <use style="stroke:#000000;stroke-width:0.6;" x="60.38" xlink:href="#m5507beae32" y="204.983345"></use>
      </g>
     </g>
    </g>
    <g id="ytick_27">
     <g id="line2d_68">
      <g>
       <use style="stroke:#000000;stroke-width:0.6;" x="60.38" xlink:href="#m5507beae32" y="202.859298"></use>
      </g>
     </g>
    </g>
    <g id="ytick_28">
     <g id="line2d_69">
      <g>
       <use style="stroke:#000000;stroke-width:0.6;" x="60.38" xlink:href="#m5507beae32" y="188.459363"></use>
      </g>
     </g>
    </g>
    <g id="ytick_29">
     <g id="line2d_70">
      <g>
       <use style="stroke:#000000;stroke-width:0.6;" x="60.38" xlink:href="#m5507beae32" y="181.147385"></use>
      </g>
     </g>
    </g>
    <g id="ytick_30">
     <g id="line2d_71">
      <g>
       <use style="stroke:#000000;stroke-width:0.6;" x="60.38" xlink:href="#m5507beae32" y="175.959454"></use>
      </g>
     </g>
    </g>
    <g id="ytick_31">
     <g id="line2d_72">
      <g>
       <use style="stroke:#000000;stroke-width:0.6;" x="60.38" xlink:href="#m5507beae32" y="171.935381"></use>
      </g>
     </g>
    </g>
    <g id="ytick_32">
     <g id="line2d_73">
      <g>
       <use style="stroke:#000000;stroke-width:0.6;" x="60.38" xlink:href="#m5507beae32" y="168.647475"></use>
      </g>
     </g>
    </g>
    <g id="ytick_33">
     <g id="line2d_74">
      <g>
       <use style="stroke:#000000;stroke-width:0.6;" x="60.38" xlink:href="#m5507beae32" y="165.86759"></use>
      </g>
     </g>
    </g>
    <g id="ytick_34">
     <g id="line2d_75">
      <g>
       <use style="stroke:#000000;stroke-width:0.6;" x="60.38" xlink:href="#m5507beae32" y="163.459544"></use>
      </g>
     </g>
    </g>
    <g id="ytick_35">
     <g id="line2d_76">
      <g>
       <use style="stroke:#000000;stroke-width:0.6;" x="60.38" xlink:href="#m5507beae32" y="161.335497"></use>
      </g>
     </g>
    </g>
    <g id="ytick_36">
     <g id="line2d_77">
      <g>
       <use style="stroke:#000000;stroke-width:0.6;" x="60.38" xlink:href="#m5507beae32" y="146.935562"></use>
      </g>
     </g>
    </g>
    <g id="ytick_37">
     <g id="line2d_78">
      <g>
       <use style="stroke:#000000;stroke-width:0.6;" x="60.38" xlink:href="#m5507beae32" y="139.623583"></use>
      </g>
     </g>
    </g>
    <g id="ytick_38">
     <g id="line2d_79">
      <g>
       <use style="stroke:#000000;stroke-width:0.6;" x="60.38" xlink:href="#m5507beae32" y="134.435652"></use>
      </g>
     </g>
    </g>
    <g id="ytick_39">
     <g id="line2d_80">
      <g>
       <use style="stroke:#000000;stroke-width:0.6;" x="60.38" xlink:href="#m5507beae32" y="130.41158"></use>
      </g>
     </g>
    </g>
    <g id="ytick_40">
     <g id="line2d_81">
      <g>
       <use style="stroke:#000000;stroke-width:0.6;" x="60.38" xlink:href="#m5507beae32" y="127.123674"></use>
      </g>
     </g>
    </g>
    <g id="ytick_41">
     <g id="line2d_82">
      <g>
       <use style="stroke:#000000;stroke-width:0.6;" x="60.38" xlink:href="#m5507beae32" y="124.343788"></use>
      </g>
     </g>
    </g>
    <g id="ytick_42">
     <g id="line2d_83">
      <g>
       <use style="stroke:#000000;stroke-width:0.6;" x="60.38" xlink:href="#m5507beae32" y="121.935742"></use>
      </g>
     </g>
    </g>
    <g id="ytick_43">
     <g id="line2d_84">
      <g>
       <use style="stroke:#000000;stroke-width:0.6;" x="60.38" xlink:href="#m5507beae32" y="119.811695"></use>
      </g>
     </g>
    </g>
    <g id="ytick_44">
     <g id="line2d_85">
      <g>
       <use style="stroke:#000000;stroke-width:0.6;" x="60.38" xlink:href="#m5507beae32" y="105.41176"></use>
      </g>
     </g>
    </g>
    <g id="ytick_45">
     <g id="line2d_86">
      <g>
       <use style="stroke:#000000;stroke-width:0.6;" x="60.38" xlink:href="#m5507beae32" y="98.099782"></use>
      </g>
     </g>
    </g>
    <g id="ytick_46">
     <g id="line2d_87">
      <g>
       <use style="stroke:#000000;stroke-width:0.6;" x="60.38" xlink:href="#m5507beae32" y="92.911851"></use>
      </g>
     </g>
    </g>
    <g id="ytick_47">
     <g id="line2d_88">
      <g>
       <use style="stroke:#000000;stroke-width:0.6;" x="60.38" xlink:href="#m5507beae32" y="88.887778"></use>
      </g>
     </g>
    </g>
    <g id="ytick_48">
     <g id="line2d_89">
      <g>
       <use style="stroke:#000000;stroke-width:0.6;" x="60.38" xlink:href="#m5507beae32" y="85.599872"></use>
      </g>
     </g>
    </g>
    <g id="ytick_49">
     <g id="line2d_90">
      <g>
       <use style="stroke:#000000;stroke-width:0.6;" x="60.38" xlink:href="#m5507beae32" y="82.819987"></use>
      </g>
     </g>
    </g>
    <g id="ytick_50">
     <g id="line2d_91">
      <g>
       <use style="stroke:#000000;stroke-width:0.6;" x="60.38" xlink:href="#m5507beae32" y="80.411941"></use>
      </g>
     </g>
    </g>
    <g id="ytick_51">
     <g id="line2d_92">
      <g>
       <use style="stroke:#000000;stroke-width:0.6;" x="60.38" xlink:href="#m5507beae32" y="78.287894"></use>
      </g>
     </g>
    </g>
    <g id="ytick_52">
     <g id="line2d_93">
      <g>
       <use style="stroke:#000000;stroke-width:0.6;" x="60.38" xlink:href="#m5507beae32" y="63.887959"></use>
      </g>
     </g>
    </g>
    <g id="ytick_53">
     <g id="line2d_94">
      <g>
       <use style="stroke:#000000;stroke-width:0.6;" x="60.38" xlink:href="#m5507beae32" y="56.57598"></use>
      </g>
     </g>
    </g>
    <g id="ytick_54">
     <g id="line2d_95">
      <g>
       <use style="stroke:#000000;stroke-width:0.6;" x="60.38" xlink:href="#m5507beae32" y="51.388049"></use>
      </g>
     </g>
    </g>
    <g id="ytick_55">
     <g id="line2d_96">
      <g>
       <use style="stroke:#000000;stroke-width:0.6;" x="60.38" xlink:href="#m5507beae32" y="47.363977"></use>
      </g>
     </g>
    </g>
    <g id="ytick_56">
     <g id="line2d_97">
      <g>
       <use style="stroke:#000000;stroke-width:0.6;" x="60.38" xlink:href="#m5507beae32" y="44.076071"></use>
      </g>
     </g>
    </g>
    <g id="ytick_57">
     <g id="line2d_98">
      <g>
       <use style="stroke:#000000;stroke-width:0.6;" x="60.38" xlink:href="#m5507beae32" y="41.296185"></use>
      </g>
     </g>
    </g>
    <g id="ytick_58">
     <g id="line2d_99">
      <g>
       <use style="stroke:#000000;stroke-width:0.6;" x="60.38" xlink:href="#m5507beae32" y="38.888139"></use>
      </g>
     </g>
    </g>
    <g id="ytick_59">
     <g id="line2d_100">
      <g>
       <use style="stroke:#000000;stroke-width:0.6;" x="60.38" xlink:href="#m5507beae32" y="36.764092"></use>
      </g>
     </g>
    </g>
    <g id="text_13">
     <!-- $(n-1)c_n^2$ (locally averaged) -->
     <defs>
      <path d="M 31 75.875 
Q 24.46875 64.65625 21.28125 53.65625 
Q 18.109375 42.671875 18.109375 31.390625 
Q 18.109375 20.125 21.3125 9.0625 
Q 24.515625 -2 31 -13.1875 
L 23.1875 -13.1875 
Q 15.875 -1.703125 12.234375 9.375 
Q 8.59375 20.453125 8.59375 31.390625 
Q 8.59375 42.28125 12.203125 53.3125 
Q 15.828125 64.359375 23.1875 75.875 
z
" id="DejaVuSans-40"></path>
      <path d="M 8.015625 75.875 
L 15.828125 75.875 
Q 23.140625 64.359375 26.78125 53.3125 
Q 30.421875 42.28125 30.421875 31.390625 
Q 30.421875 20.453125 26.78125 9.375 
Q 23.140625 -1.703125 15.828125 -13.1875 
L 8.015625 -13.1875 
Q 14.5 -2 17.703125 9.0625 
Q 20.90625 20.125 20.90625 31.390625 
Q 20.90625 42.671875 17.703125 53.65625 
Q 14.5 64.65625 8.015625 75.875 
z
" id="DejaVuSans-41"></path>
      <path d="M 53.609375 52.59375 
L 51.8125 43.703125 
Q 48.578125 46.046875 44.9375 47.21875 
Q 41.3125 48.390625 37.40625 48.390625 
Q 33.109375 48.390625 29.21875 46.875 
Q 25.34375 45.359375 22.703125 42.578125 
Q 18.5 38.328125 16.203125 32.609375 
Q 13.921875 26.90625 13.921875 20.796875 
Q 13.921875 13.421875 17.609375 9.8125 
Q 21.296875 6.203125 28.8125 6.203125 
Q 32.515625 6.203125 36.6875 7.328125 
Q 40.875 8.453125 45.40625 10.6875 
L 43.703125 1.8125 
Q 39.796875 0.203125 35.671875 -0.609375 
Q 31.546875 -1.421875 27.203125 -1.421875 
Q 16.3125 -1.421875 10.453125 4.015625 
Q 4.59375 9.46875 4.59375 19.578125 
Q 4.59375 28.078125 7.640625 35.234375 
Q 10.6875 42.390625 16.703125 48.09375 
Q 20.796875 52 26.3125 54 
Q 31.84375 56 38.375 56 
Q 42.1875 56 45.9375 55.140625 
Q 49.703125 54.296875 53.609375 52.59375 
z
" id="DejaVuSans-Oblique-99"></path>
      <path d="M 19.1875 8.296875 
L 53.609375 8.296875 
L 53.609375 0 
L 7.328125 0 
L 7.328125 8.296875 
Q 12.9375 14.109375 22.625 23.890625 
Q 32.328125 33.6875 34.8125 36.53125 
Q 39.546875 41.84375 41.421875 45.53125 
Q 43.3125 49.21875 43.3125 52.78125 
Q 43.3125 58.59375 39.234375 62.25 
Q 35.15625 65.921875 28.609375 65.921875 
Q 23.96875 65.921875 18.8125 64.3125 
Q 13.671875 62.703125 7.8125 59.421875 
L 7.8125 69.390625 
Q 13.765625 71.78125 18.9375 73 
Q 24.125 74.21875 28.421875 74.21875 
Q 39.75 74.21875 46.484375 68.546875 
Q 53.21875 62.890625 53.21875 53.421875 
Q 53.21875 48.921875 51.53125 44.890625 
Q 49.859375 40.875 45.40625 35.40625 
Q 44.1875 33.984375 37.640625 27.21875 
Q 31.109375 20.453125 19.1875 8.296875 
z
" id="DejaVuSans-50"></path>
      <path id="DejaVuSans-32"></path>
      <path d="M 9.421875 75.984375 
L 18.40625 75.984375 
L 18.40625 0 
L 9.421875 0 
z
" id="DejaVuSans-108"></path>
      <path d="M 30.609375 48.390625 
Q 23.390625 48.390625 19.1875 42.75 
Q 14.984375 37.109375 14.984375 27.296875 
Q 14.984375 17.484375 19.15625 11.84375 
Q 23.34375 6.203125 30.609375 6.203125 
Q 37.796875 6.203125 41.984375 11.859375 
Q 46.1875 17.53125 46.1875 27.296875 
Q 46.1875 37.015625 41.984375 42.703125 
Q 37.796875 48.390625 30.609375 48.390625 
z
M 30.609375 56 
Q 42.328125 56 49.015625 48.375 
Q 55.71875 40.765625 55.71875 27.296875 
Q 55.71875 13.875 49.015625 6.21875 
Q 42.328125 -1.421875 30.609375 -1.421875 
Q 18.84375 -1.421875 12.171875 6.21875 
Q 5.515625 13.875 5.515625 27.296875 
Q 5.515625 40.765625 12.171875 48.375 
Q 18.84375 56 30.609375 56 
z
" id="DejaVuSans-111"></path>
      <path d="M 48.78125 52.59375 
L 48.78125 44.1875 
Q 44.96875 46.296875 41.140625 47.34375 
Q 37.3125 48.390625 33.40625 48.390625 
Q 24.65625 48.390625 19.8125 42.84375 
Q 14.984375 37.3125 14.984375 27.296875 
Q 14.984375 17.28125 19.8125 11.734375 
Q 24.65625 6.203125 33.40625 6.203125 
Q 37.3125 6.203125 41.140625 7.25 
Q 44.96875 8.296875 48.78125 10.40625 
L 48.78125 2.09375 
Q 45.015625 0.34375 40.984375 -0.53125 
Q 36.96875 -1.421875 32.421875 -1.421875 
Q 20.0625 -1.421875 12.78125 6.34375 
Q 5.515625 14.109375 5.515625 27.296875 
Q 5.515625 40.671875 12.859375 48.328125 
Q 20.21875 56 33.015625 56 
Q 37.15625 56 41.109375 55.140625 
Q 45.0625 54.296875 48.78125 52.59375 
z
" id="DejaVuSans-99"></path>
      <path d="M 34.28125 27.484375 
Q 23.390625 27.484375 19.1875 25 
Q 14.984375 22.515625 14.984375 16.5 
Q 14.984375 11.71875 18.140625 8.90625 
Q 21.296875 6.109375 26.703125 6.109375 
Q 34.1875 6.109375 38.703125 11.40625 
Q 43.21875 16.703125 43.21875 25.484375 
L 43.21875 27.484375 
z
M 52.203125 31.203125 
L 52.203125 0 
L 43.21875 0 
L 43.21875 8.296875 
Q 40.140625 3.328125 35.546875 0.953125 
Q 30.953125 -1.421875 24.3125 -1.421875 
Q 15.921875 -1.421875 10.953125 3.296875 
Q 6 8.015625 6 15.921875 
Q 6 25.140625 12.171875 29.828125 
Q 18.359375 34.515625 30.609375 34.515625 
L 43.21875 34.515625 
L 43.21875 35.40625 
Q 43.21875 41.609375 39.140625 45 
Q 35.0625 48.390625 27.6875 48.390625 
Q 23 48.390625 18.546875 47.265625 
Q 14.109375 46.140625 10.015625 43.890625 
L 10.015625 52.203125 
Q 14.9375 54.109375 19.578125 55.046875 
Q 24.21875 56 28.609375 56 
Q 40.484375 56 46.34375 49.84375 
Q 52.203125 43.703125 52.203125 31.203125 
z
" id="DejaVuSans-97"></path>
      <path d="M 32.171875 -5.078125 
Q 28.375 -14.84375 24.75 -17.8125 
Q 21.140625 -20.796875 15.09375 -20.796875 
L 7.90625 -20.796875 
L 7.90625 -13.28125 
L 13.1875 -13.28125 
Q 16.890625 -13.28125 18.9375 -11.515625 
Q 21 -9.765625 23.484375 -3.21875 
L 25.09375 0.875 
L 2.984375 54.6875 
L 12.5 54.6875 
L 29.59375 11.921875 
L 46.6875 54.6875 
L 56.203125 54.6875 
z
" id="DejaVuSans-121"></path>
      <path d="M 2.984375 54.6875 
L 12.5 54.6875 
L 29.59375 8.796875 
L 46.6875 54.6875 
L 56.203125 54.6875 
L 35.6875 0 
L 23.484375 0 
z
" id="DejaVuSans-118"></path>
      <path d="M 56.203125 29.59375 
L 56.203125 25.203125 
L 14.890625 25.203125 
Q 15.484375 15.921875 20.484375 11.0625 
Q 25.484375 6.203125 34.421875 6.203125 
Q 39.59375 6.203125 44.453125 7.46875 
Q 49.3125 8.734375 54.109375 11.28125 
L 54.109375 2.78125 
Q 49.265625 0.734375 44.1875 -0.34375 
Q 39.109375 -1.421875 33.890625 -1.421875 
Q 20.796875 -1.421875 13.15625 6.1875 
Q 5.515625 13.8125 5.515625 26.8125 
Q 5.515625 40.234375 12.765625 48.109375 
Q 20.015625 56 32.328125 56 
Q 43.359375 56 49.78125 48.890625 
Q 56.203125 41.796875 56.203125 29.59375 
z
M 47.21875 32.234375 
Q 47.125 39.59375 43.09375 43.984375 
Q 39.0625 48.390625 32.421875 48.390625 
Q 24.90625 48.390625 20.390625 44.140625 
Q 15.875 39.890625 15.1875 32.171875 
z
" id="DejaVuSans-101"></path>
      <path d="M 41.109375 46.296875 
Q 39.59375 47.171875 37.8125 47.578125 
Q 36.03125 48 33.890625 48 
Q 26.265625 48 22.1875 43.046875 
Q 18.109375 38.09375 18.109375 28.8125 
L 18.109375 0 
L 9.078125 0 
L 9.078125 54.6875 
L 18.109375 54.6875 
L 18.109375 46.1875 
Q 20.953125 51.171875 25.484375 53.578125 
Q 30.03125 56 36.53125 56 
Q 37.453125 56 38.578125 55.875 
Q 39.703125 55.765625 41.0625 55.515625 
z
" id="DejaVuSans-114"></path>
      <path d="M 45.40625 27.984375 
Q 45.40625 37.75 41.375 43.109375 
Q 37.359375 48.484375 30.078125 48.484375 
Q 22.859375 48.484375 18.828125 43.109375 
Q 14.796875 37.75 14.796875 27.984375 
Q 14.796875 18.265625 18.828125 12.890625 
Q 22.859375 7.515625 30.078125 7.515625 
Q 37.359375 7.515625 41.375 12.890625 
Q 45.40625 18.265625 45.40625 27.984375 
z
M 54.390625 6.78125 
Q 54.390625 -7.171875 48.1875 -13.984375 
Q 42 -20.796875 29.203125 -20.796875 
Q 24.46875 -20.796875 20.265625 -20.09375 
Q 16.0625 -19.390625 12.109375 -17.921875 
L 12.109375 -9.1875 
Q 16.0625 -11.328125 19.921875 -12.34375 
Q 23.78125 -13.375 27.78125 -13.375 
Q 36.625 -13.375 41.015625 -8.765625 
Q 45.40625 -4.15625 45.40625 5.171875 
L 45.40625 9.625 
Q 42.625 4.78125 38.28125 2.390625 
Q 33.9375 0 27.875 0 
Q 17.828125 0 11.671875 7.65625 
Q 5.515625 15.328125 5.515625 27.984375 
Q 5.515625 40.671875 11.671875 48.328125 
Q 17.828125 56 27.875 56 
Q 33.9375 56 38.28125 53.609375 
Q 42.625 51.21875 45.40625 46.390625 
L 45.40625 54.6875 
L 54.390625 54.6875 
z
" id="DejaVuSans-103"></path>
      <path d="M 45.40625 46.390625 
L 45.40625 75.984375 
L 54.390625 75.984375 
L 54.390625 0 
L 45.40625 0 
L 45.40625 8.203125 
Q 42.578125 3.328125 38.25 0.953125 
Q 33.9375 -1.421875 27.875 -1.421875 
Q 17.96875 -1.421875 11.734375 6.484375 
Q 5.515625 14.40625 5.515625 27.296875 
Q 5.515625 40.1875 11.734375 48.09375 
Q 17.96875 56 27.875 56 
Q 33.9375 56 38.25 53.625 
Q 42.578125 51.265625 45.40625 46.390625 
z
M 14.796875 27.296875 
Q 14.796875 17.390625 18.875 11.75 
Q 22.953125 6.109375 30.078125 6.109375 
Q 37.203125 6.109375 41.296875 11.75 
Q 45.40625 17.390625 45.40625 27.296875 
Q 45.40625 37.203125 41.296875 42.84375 
Q 37.203125 48.484375 30.078125 48.484375 
Q 22.953125 48.484375 18.875 42.84375 
Q 14.796875 37.203125 14.796875 27.296875 
z
" id="DejaVuSans-100"></path>
     </defs>
     <g transform="translate(18.12 242.697656)rotate(-90)scale(0.12 -0.12)">
      <use transform="translate(0 0.765625)" xlink:href="#DejaVuSans-40"></use>
      <use transform="translate(39.013672 0.765625)" xlink:href="#DejaVuSans-Oblique-110"></use>
      <use transform="translate(121.875 0.765625)" xlink:href="#DejaVuSans-8722"></use>
      <use transform="translate(225.146484 0.765625)" xlink:href="#DejaVuSans-49"></use>
      <use transform="translate(288.769531 0.765625)" xlink:href="#DejaVuSans-41"></use>
      <use transform="translate(327.783203 0.765625)" xlink:href="#DejaVuSans-Oblique-99"></use>
      <use transform="translate(387.413568 39.046875)scale(0.7)" xlink:href="#DejaVuSans-50"></use>
      <use transform="translate(382.763672 -26.578125)scale(0.7)" xlink:href="#DejaVuSans-Oblique-110"></use>
      <use transform="translate(434.684076 0.765625)" xlink:href="#DejaVuSans-32"></use>
      <use transform="translate(466.471185 0.765625)" xlink:href="#DejaVuSans-40"></use>
      <use transform="translate(505.484857 0.765625)" xlink:href="#DejaVuSans-108"></use>
      <use transform="translate(533.26806 0.765625)" xlink:href="#DejaVuSans-111"></use>
      <use transform="translate(594.449701 0.765625)" xlink:href="#DejaVuSans-99"></use>
      <use transform="translate(649.430169 0.765625)" xlink:href="#DejaVuSans-97"></use>
      <use transform="translate(710.709466 0.765625)" xlink:href="#DejaVuSans-108"></use>
      <use transform="translate(738.492669 0.765625)" xlink:href="#DejaVuSans-108"></use>
      <use transform="translate(766.275872 0.765625)" xlink:href="#DejaVuSans-121"></use>
      <use transform="translate(825.45556 0.765625)" xlink:href="#DejaVuSans-32"></use>
      <use transform="translate(857.242669 0.765625)" xlink:href="#DejaVuSans-97"></use>
      <use transform="translate(918.521966 0.765625)" xlink:href="#DejaVuSans-118"></use>
      <use transform="translate(977.701654 0.765625)" xlink:href="#DejaVuSans-101"></use>
      <use transform="translate(1039.225091 0.765625)" xlink:href="#DejaVuSans-114"></use>
      <use transform="translate(1080.338372 0.765625)" xlink:href="#DejaVuSans-97"></use>
      <use transform="translate(1141.617669 0.765625)" xlink:href="#DejaVuSans-103"></use>
      <use transform="translate(1205.094232 0.765625)" xlink:href="#DejaVuSans-101"></use>
      <use transform="translate(1266.617669 0.765625)" xlink:href="#DejaVuSans-100"></use>
      <use transform="translate(1330.094232 0.765625)" xlink:href="#DejaVuSans-41"></use>
     </g>
    </g>
   </g>
   <g id="line2d_101">
    <path clip-path="url(#pb16403a642)" d="M 60.38 36.952202 
L 64.519227 48.910695 
L 68.665927 48.867381 
L 72.798141 51.894041 
L 76.930721 60.573224 
L 81.078248 60.83223 
L 85.227064 67.239826 
L 89.371456 76.424028 
L 93.510307 77.531689 
L 97.651011 77.467353 
L 101.793518 79.636071 
L 105.933025 79.963002 
L 110.075308 68.602496 
L 114.215256 78.944488 
L 118.355736 74.835161 
L 122.49706 84.789439 
L 126.637555 94.93852 
L 130.779152 92.103228 
L 134.920621 89.879125 
L 139.062607 93.427902 
L 143.204448 103.459061 
L 147.345927 108.233442 
L 151.48661 99.471676 
L 155.626785 109.790477 
L 159.7678 102.563459 
L 163.90891 106.062311 
L 168.049598 110.773889 
L 172.190693 111.589077 
L 176.331736 118.192398 
L 180.473067 125.86014 
L 184.614361 121.446022 
L 188.75498 125.227687 
L 192.896039 129.522355 
L 197.037365 131.328793 
L 201.178324 135.951361 
L 205.318937 140.799444 
L 209.45971 142.492522 
L 213.600885 128.260183 
L 217.741791 139.556864 
L 221.882748 137.347745 
L 226.023732 145.363856 
L 230.164721 146.227416 
L 234.305663 154.269273 
L 238.446552 150.468179 
L 242.587533 159.741569 
L 246.728546 162.70261 
L 250.86952 167.62755 
L 255.010416 166.286803 
L 259.151354 170.676792 
L 263.292321 161.415887 
L 267.43324 164.649797 
L 271.574182 166.515824 
L 275.715159 169.522645 
L 279.856098 175.993788 
L 283.996997 181.610248 
L 288.13794 179.187151 
L 292.27891 181.990073 
L 296.419828 188.907203 
L 300.560762 194.594808 
L 304.701707 191.63446 
L 308.842636 193.870813 
L 312.983569 195.431737 
L 317.1245 190.923259 
L 321.26544 199.587689 
L 325.406378 196.126518 
L 329.54731 206.040485 
L 333.688246 210.969402 
L 337.829188 212.32448 
L 341.970124 208.542917 
L 346.111057 214.210311 
L 350.251995 217.139323 
L 354.392932 220.668698 
L 358.533869 224.123657 
L 362.674805 229.501037 
L 366.815739 216.749348 
L 370.956675 223.882234 
L 375.097609 223.341044 
L 379.238542 230.339347 
L 383.379479 230.822724 
L 387.520416 236.5557 
L 391.661354 237.623387 
L 395.802285 243.12149 
L 399.943218 247.080316 
L 404.084155 251.185946 
L 408.225091 250.499252 
L 412.366026 256.085037 
L 416.50696 249.450381 
L 420.647894 249.093904 
L 424.788832 254.485035 
L 428.929768 253.155222 
L 433.070702 263.195039 
L 437.211636 267.193015 
L 441.352572 266.306792 
L 445.493508 265.027612 
L 449.634442 270.126681 
L 453.775377 276.852604 
L 457.916311 275.360597 
L 462.057246 277.039837 
L 466.198182 284.043111 
" style="fill:none;stroke:#1f77b4;stroke-linecap:square;stroke-width:1.5;"></path>
   </g>
   <g id="line2d_102">
    <path clip-path="url(#pb16403a642)" d="M 60.38 51.18164 
L 64.519227 53.531097 
L 68.665927 55.884797 
L 72.798141 58.230272 
L 76.930721 60.575958 
L 81.078248 62.930127 
L 85.227064 65.285027 
L 89.371456 67.637416 
L 93.510307 69.986664 
L 97.651011 72.336951 
L 101.793518 74.68828 
L 105.933025 77.037897 
L 110.075308 79.389075 
L 114.215256 81.738953 
L 118.355736 84.089111 
L 122.49706 86.439769 
L 126.637555 88.789947 
L 130.779152 91.140745 
L 134.920621 93.491483 
L 139.062607 95.842501 
L 143.204448 98.193439 
L 147.345927 100.544177 
L 151.48661 102.894455 
L 155.626785 105.244452 
L 159.7678 107.59493 
L 163.90891 109.945448 
L 168.049598 112.295746 
L 172.190693 114.646264 
L 176.331736 116.996742 
L 180.473067 119.3474 
L 184.614361 121.698038 
L 188.75498 124.048276 
L 192.896039 126.398774 
L 197.037365 128.749432 
L 201.178324 131.099869 
L 205.318937 133.450107 
L 209.45971 135.800445 
L 213.600885 138.151003 
L 217.741791 140.501421 
L 221.882748 142.851859 
L 226.023732 145.202317 
L 230.164721 147.552775 
L 234.305663 149.903192 
L 238.446552 152.25359 
L 242.587533 154.604048 
L 246.728546 156.954526 
L 250.86952 159.304984 
L 255.010416 161.655382 
L 259.151354 164.0058 
L 263.292321 166.356258 
L 267.43324 168.706676 
L 271.574182 171.057093 
L 275.715159 173.407551 
L 279.856098 175.757989 
L 283.996997 178.108387 
L 288.13794 180.458825 
L 292.27891 182.809263 
L 296.419828 185.159681 
L 300.560762 187.510119 
L 304.701707 189.860536 
L 308.842636 192.210974 
L 312.983569 194.561392 
L 317.1245 196.91181 
L 321.26544 199.262248 
L 325.406378 201.612666 
L 329.54731 203.963104 
L 333.688246 206.313522 
L 337.829188 208.66396 
L 341.970124 211.014377 
L 346.111057 213.364815 
L 350.251995 215.715233 
L 354.392932 218.065671 
L 358.533869 220.416089 
L 362.674805 222.766527 
L 366.815739 225.116945 
L 370.956675 227.467383 
L 375.097609 229.8178 
L 379.238542 232.168238 
L 383.379479 234.518656 
L 387.520416 236.869094 
L 391.661354 239.219512 
L 395.802285 241.56995 
L 399.943218 243.920348 
L 404.084155 246.270786 
L 408.225091 248.621223 
L 412.366026 250.971661 
L 416.50696 253.322059 
L 420.647894 255.672497 
L 424.788832 258.022935 
L 428.929768 260.373373 
L 433.070702 262.723771 
L 437.211636 265.074209 
L 441.352572 267.424647 
L 445.493508 269.775084 
L 449.634442 272.125482 
L 453.775377 274.47592 
L 457.916311 276.826358 
L 462.057246 279.176756 
L 466.198182 281.527194 
" style="fill:none;stroke:#ff7f0e;stroke-linecap:square;stroke-width:1.5;"></path>
   </g>
   <g id="line2d_103">
    <path clip-path="url(#pb16403a642)" d="M 58.258128 296.397656 
L 58.258128 24.597656 
" style="fill:none;stroke:#ff0000;stroke-linecap:square;stroke-opacity:0.2;stroke-width:1.5;"></path>
   </g>
   <g id="line2d_104">
    <path clip-path="url(#pb16403a642)" d="M 83.880164 296.397656 
L 83.880164 24.597656 
" style="fill:none;stroke:#ff0000;stroke-linecap:square;stroke-opacity:0.2;stroke-width:1.5;"></path>
   </g>
   <g id="line2d_105">
    <path clip-path="url(#pb16403a642)" d="M 109.502199 296.397656 
L 109.502199 24.597656 
" style="fill:none;stroke:#ff0000;stroke-linecap:square;stroke-opacity:0.2;stroke-width:1.5;"></path>
   </g>
   <g id="line2d_106">
    <path clip-path="url(#pb16403a642)" d="M 135.124234 296.397656 
L 135.124234 24.597656 
" style="fill:none;stroke:#ff0000;stroke-linecap:square;stroke-opacity:0.2;stroke-width:1.5;"></path>
   </g>
   <g id="line2d_107">
    <path clip-path="url(#pb16403a642)" d="M 160.74627 296.397656 
L 160.74627 24.597656 
" style="fill:none;stroke:#ff0000;stroke-linecap:square;stroke-opacity:0.2;stroke-width:1.5;"></path>
   </g>
   <g id="line2d_108">
    <path clip-path="url(#pb16403a642)" d="M 186.368305 296.397656 
L 186.368305 24.597656 
" style="fill:none;stroke:#ff0000;stroke-linecap:square;stroke-opacity:0.2;stroke-width:1.5;"></path>
   </g>
   <g id="line2d_109">
    <path clip-path="url(#pb16403a642)" d="M 211.990341 296.397656 
L 211.990341 24.597656 
" style="fill:none;stroke:#ff0000;stroke-linecap:square;stroke-opacity:0.2;stroke-width:1.5;"></path>
   </g>
   <g id="line2d_110">
    <path clip-path="url(#pb16403a642)" d="M 237.612376 296.397656 
L 237.612376 24.597656 
" style="fill:none;stroke:#ff0000;stroke-linecap:square;stroke-opacity:0.2;stroke-width:1.5;"></path>
   </g>
   <g id="line2d_111">
    <path clip-path="url(#pb16403a642)" d="M 263.234412 296.397656 
L 263.234412 24.597656 
" style="fill:none;stroke:#ff0000;stroke-linecap:square;stroke-opacity:0.2;stroke-width:1.5;"></path>
   </g>
   <g id="line2d_112">
    <path clip-path="url(#pb16403a642)" d="M 288.856447 296.397656 
L 288.856447 24.597656 
" style="fill:none;stroke:#ff0000;stroke-linecap:square;stroke-opacity:0.2;stroke-width:1.5;"></path>
   </g>
   <g id="line2d_113">
    <path clip-path="url(#pb16403a642)" d="M 314.478483 296.397656 
L 314.478483 24.597656 
" style="fill:none;stroke:#ff0000;stroke-linecap:square;stroke-opacity:0.2;stroke-width:1.5;"></path>
   </g>
   <g id="line2d_114">
    <path clip-path="url(#pb16403a642)" d="M 340.100518 296.397656 
L 340.100518 24.597656 
" style="fill:none;stroke:#ff0000;stroke-linecap:square;stroke-opacity:0.2;stroke-width:1.5;"></path>
   </g>
   <g id="line2d_115">
    <path clip-path="url(#pb16403a642)" d="M 365.722553 296.397656 
L 365.722553 24.597656 
" style="fill:none;stroke:#ff0000;stroke-linecap:square;stroke-opacity:0.2;stroke-width:1.5;"></path>
   </g>
   <g id="line2d_116">
    <path clip-path="url(#pb16403a642)" d="M 391.344589 296.397656 
L 391.344589 24.597656 
" style="fill:none;stroke:#ff0000;stroke-linecap:square;stroke-opacity:0.2;stroke-width:1.5;"></path>
   </g>
   <g id="line2d_117">
    <path clip-path="url(#pb16403a642)" d="M 416.966624 296.397656 
L 416.966624 24.597656 
" style="fill:none;stroke:#ff0000;stroke-linecap:square;stroke-opacity:0.2;stroke-width:1.5;"></path>
   </g>
   <g id="line2d_118">
    <path clip-path="url(#pb16403a642)" d="M 442.58866 296.397656 
L 442.58866 24.597656 
" style="fill:none;stroke:#ff0000;stroke-linecap:square;stroke-opacity:0.2;stroke-width:1.5;"></path>
   </g>
   <g id="patch_3">
    <path d="M 60.38 296.397656 
L 60.38 24.597656 
" style="fill:none;stroke:#000000;stroke-linecap:square;stroke-linejoin:miter;stroke-width:0.8;"></path>
   </g>
   <g id="patch_4">
    <path d="M 466.198182 296.397656 
L 466.198182 24.597656 
" style="fill:none;stroke:#000000;stroke-linecap:square;stroke-linejoin:miter;stroke-width:0.8;"></path>
   </g>
   <g id="patch_5">
    <path d="M 60.38 296.397656 
L 466.198182 296.397656 
" style="fill:none;stroke:#000000;stroke-linecap:square;stroke-linejoin:miter;stroke-width:0.8;"></path>
   </g>
   <g id="patch_6">
    <path d="M 60.38 24.597656 
L 466.198182 24.597656 
" style="fill:none;stroke:#000000;stroke-linecap:square;stroke-linejoin:miter;stroke-width:0.8;"></path>
   </g>
   <g id="text_14">
    <!-- Locally averaged area contribution -->
    <defs>
     <path d="M 9.8125 72.90625 
L 19.671875 72.90625 
L 19.671875 8.296875 
L 55.171875 8.296875 
L 55.171875 0 
L 9.8125 0 
z
" id="DejaVuSans-76"></path>
     <path d="M 54.890625 33.015625 
L 54.890625 0 
L 45.90625 0 
L 45.90625 32.71875 
Q 45.90625 40.484375 42.875 44.328125 
Q 39.84375 48.1875 33.796875 48.1875 
Q 26.515625 48.1875 22.3125 43.546875 
Q 18.109375 38.921875 18.109375 30.90625 
L 18.109375 0 
L 9.078125 0 
L 9.078125 54.6875 
L 18.109375 54.6875 
L 18.109375 46.1875 
Q 21.34375 51.125 25.703125 53.5625 
Q 30.078125 56 35.796875 56 
Q 45.21875 56 50.046875 50.171875 
Q 54.890625 44.34375 54.890625 33.015625 
z
" id="DejaVuSans-110"></path>
     <path d="M 18.3125 70.21875 
L 18.3125 54.6875 
L 36.8125 54.6875 
L 36.8125 47.703125 
L 18.3125 47.703125 
L 18.3125 18.015625 
Q 18.3125 11.328125 20.140625 9.421875 
Q 21.96875 7.515625 27.59375 7.515625 
L 36.8125 7.515625 
L 36.8125 0 
L 27.59375 0 
Q 17.1875 0 13.234375 3.875 
Q 9.28125 7.765625 9.28125 18.015625 
L 9.28125 47.703125 
L 2.6875 47.703125 
L 2.6875 54.6875 
L 9.28125 54.6875 
L 9.28125 70.21875 
z
" id="DejaVuSans-116"></path>
     <path d="M 9.421875 54.6875 
L 18.40625 54.6875 
L 18.40625 0 
L 9.421875 0 
z
M 9.421875 75.984375 
L 18.40625 75.984375 
L 18.40625 64.59375 
L 9.421875 64.59375 
z
" id="DejaVuSans-105"></path>
     <path d="M 48.6875 27.296875 
Q 48.6875 37.203125 44.609375 42.84375 
Q 40.53125 48.484375 33.40625 48.484375 
Q 26.265625 48.484375 22.1875 42.84375 
Q 18.109375 37.203125 18.109375 27.296875 
Q 18.109375 17.390625 22.1875 11.75 
Q 26.265625 6.109375 33.40625 6.109375 
Q 40.53125 6.109375 44.609375 11.75 
Q 48.6875 17.390625 48.6875 27.296875 
z
M 18.109375 46.390625 
Q 20.953125 51.265625 25.265625 53.625 
Q 29.59375 56 35.59375 56 
Q 45.5625 56 51.78125 48.09375 
Q 58.015625 40.1875 58.015625 27.296875 
Q 58.015625 14.40625 51.78125 6.484375 
Q 45.5625 -1.421875 35.59375 -1.421875 
Q 29.59375 -1.421875 25.265625 0.953125 
Q 20.953125 3.328125 18.109375 8.203125 
L 18.109375 0 
L 9.078125 0 
L 9.078125 75.984375 
L 18.109375 75.984375 
z
" id="DejaVuSans-98"></path>
     <path d="M 8.5 21.578125 
L 8.5 54.6875 
L 17.484375 54.6875 
L 17.484375 21.921875 
Q 17.484375 14.15625 20.5 10.265625 
Q 23.53125 6.390625 29.59375 6.390625 
Q 36.859375 6.390625 41.078125 11.03125 
Q 45.3125 15.671875 45.3125 23.6875 
L 45.3125 54.6875 
L 54.296875 54.6875 
L 54.296875 0 
L 45.3125 0 
L 45.3125 8.40625 
Q 42.046875 3.421875 37.71875 1 
Q 33.40625 -1.421875 27.6875 -1.421875 
Q 18.265625 -1.421875 13.375 4.4375 
Q 8.5 10.296875 8.5 21.578125 
z
M 31.109375 56 
z
" id="DejaVuSans-117"></path>
    </defs>
    <g transform="translate(132.533622 18.597656)scale(0.15 -0.15)">
     <use xlink:href="#DejaVuSans-76"></use>
     <use x="53.962891" xlink:href="#DejaVuSans-111"></use>
     <use x="115.144531" xlink:href="#DejaVuSans-99"></use>
     <use x="170.125" xlink:href="#DejaVuSans-97"></use>
     <use x="231.404297" xlink:href="#DejaVuSans-108"></use>
     <use x="259.1875" xlink:href="#DejaVuSans-108"></use>
     <use x="286.970703" xlink:href="#DejaVuSans-121"></use>
     <use x="346.150391" xlink:href="#DejaVuSans-32"></use>
     <use x="377.9375" xlink:href="#DejaVuSans-97"></use>
     <use x="439.216797" xlink:href="#DejaVuSans-118"></use>
     <use x="498.396484" xlink:href="#DejaVuSans-101"></use>
     <use x="559.919922" xlink:href="#DejaVuSans-114"></use>
     <use x="601.033203" xlink:href="#DejaVuSans-97"></use>
     <use x="662.3125" xlink:href="#DejaVuSans-103"></use>
     <use x="725.789062" xlink:href="#DejaVuSans-101"></use>
     <use x="787.3125" xlink:href="#DejaVuSans-100"></use>
     <use x="850.789062" xlink:href="#DejaVuSans-32"></use>
     <use x="882.576172" xlink:href="#DejaVuSans-97"></use>
     <use x="943.855469" xlink:href="#DejaVuSans-114"></use>
     <use x="982.71875" xlink:href="#DejaVuSans-101"></use>
     <use x="1044.242188" xlink:href="#DejaVuSans-97"></use>
     <use x="1105.521484" xlink:href="#DejaVuSans-32"></use>
     <use x="1137.308594" xlink:href="#DejaVuSans-99"></use>
     <use x="1192.289062" xlink:href="#DejaVuSans-111"></use>
     <use x="1253.470703" xlink:href="#DejaVuSans-110"></use>
     <use x="1316.849609" xlink:href="#DejaVuSans-116"></use>
     <use x="1356.058594" xlink:href="#DejaVuSans-114"></use>
     <use x="1397.171875" xlink:href="#DejaVuSans-105"></use>
     <use x="1424.955078" xlink:href="#DejaVuSans-98"></use>
     <use x="1488.431641" xlink:href="#DejaVuSans-117"></use>
     <use x="1551.810547" xlink:href="#DejaVuSans-116"></use>
     <use x="1591.019531" xlink:href="#DejaVuSans-105"></use>
     <use x="1618.802734" xlink:href="#DejaVuSans-111"></use>
     <use x="1679.984375" xlink:href="#DejaVuSans-110"></use>
    </g>
   </g>
   <g id="legend_1">
    <g id="patch_7">
     <path d="M 377.251307 61.953906 
L 459.198182 61.953906 
Q 461.198182 61.953906 461.198182 59.953906 
L 461.198182 31.597656 
Q 461.198182 29.597656 459.198182 29.597656 
L 377.251307 29.597656 
Q 375.251307 29.597656 375.251307 31.597656 
L 375.251307 59.953906 
Q 375.251307 61.953906 377.251307 61.953906 
z
" style="fill:#ffffff;opacity:0.8;stroke:#cccccc;stroke-linejoin:miter;"></path>
    </g>
    <g id="line2d_119">
     <path d="M 379.251307 37.696094 
L 399.251307 37.696094 
" style="fill:none;stroke:#1f77b4;stroke-linecap:square;stroke-width:1.5;"></path>
    </g>
    <g id="line2d_120"></g>
    <g id="text_15">
     <!-- smoothed -->
     <defs>
      <path d="M 44.28125 53.078125 
L 44.28125 44.578125 
Q 40.484375 46.53125 36.375 47.5 
Q 32.28125 48.484375 27.875 48.484375 
Q 21.1875 48.484375 17.84375 46.4375 
Q 14.5 44.390625 14.5 40.28125 
Q 14.5 37.15625 16.890625 35.375 
Q 19.28125 33.59375 26.515625 31.984375 
L 29.59375 31.296875 
Q 39.15625 29.25 43.1875 25.515625 
Q 47.21875 21.78125 47.21875 15.09375 
Q 47.21875 7.46875 41.1875 3.015625 
Q 35.15625 -1.421875 24.609375 -1.421875 
Q 20.21875 -1.421875 15.453125 -0.5625 
Q 10.6875 0.296875 5.421875 2 
L 5.421875 11.28125 
Q 10.40625 8.6875 15.234375 7.390625 
Q 20.0625 6.109375 24.8125 6.109375 
Q 31.15625 6.109375 34.5625 8.28125 
Q 37.984375 10.453125 37.984375 14.40625 
Q 37.984375 18.0625 35.515625 20.015625 
Q 33.0625 21.96875 24.703125 23.78125 
L 21.578125 24.515625 
Q 13.234375 26.265625 9.515625 29.90625 
Q 5.8125 33.546875 5.8125 39.890625 
Q 5.8125 47.609375 11.28125 51.796875 
Q 16.75 56 26.8125 56 
Q 31.78125 56 36.171875 55.265625 
Q 40.578125 54.546875 44.28125 53.078125 
z
" id="DejaVuSans-115"></path>
      <path d="M 52 44.1875 
Q 55.375 50.25 60.0625 53.125 
Q 64.75 56 71.09375 56 
Q 79.640625 56 84.28125 50.015625 
Q 88.921875 44.046875 88.921875 33.015625 
L 88.921875 0 
L 79.890625 0 
L 79.890625 32.71875 
Q 79.890625 40.578125 77.09375 44.375 
Q 74.3125 48.1875 68.609375 48.1875 
Q 61.625 48.1875 57.5625 43.546875 
Q 53.515625 38.921875 53.515625 30.90625 
L 53.515625 0 
L 44.484375 0 
L 44.484375 32.71875 
Q 44.484375 40.625 41.703125 44.40625 
Q 38.921875 48.1875 33.109375 48.1875 
Q 26.21875 48.1875 22.15625 43.53125 
Q 18.109375 38.875 18.109375 30.90625 
L 18.109375 0 
L 9.078125 0 
L 9.078125 54.6875 
L 18.109375 54.6875 
L 18.109375 46.1875 
Q 21.1875 51.21875 25.484375 53.609375 
Q 29.78125 56 35.6875 56 
Q 41.65625 56 45.828125 52.96875 
Q 50 49.953125 52 44.1875 
z
" id="DejaVuSans-109"></path>
      <path d="M 54.890625 33.015625 
L 54.890625 0 
L 45.90625 0 
L 45.90625 32.71875 
Q 45.90625 40.484375 42.875 44.328125 
Q 39.84375 48.1875 33.796875 48.1875 
Q 26.515625 48.1875 22.3125 43.546875 
Q 18.109375 38.921875 18.109375 30.90625 
L 18.109375 0 
L 9.078125 0 
L 9.078125 75.984375 
L 18.109375 75.984375 
L 18.109375 46.1875 
Q 21.34375 51.125 25.703125 53.5625 
Q 30.078125 56 35.796875 56 
Q 45.21875 56 50.046875 50.171875 
Q 54.890625 44.34375 54.890625 33.015625 
z
" id="DejaVuSans-104"></path>
     </defs>
     <g transform="translate(407.251307 41.196094)scale(0.1 -0.1)">
      <use xlink:href="#DejaVuSans-115"></use>
      <use x="52.099609" xlink:href="#DejaVuSans-109"></use>
      <use x="149.511719" xlink:href="#DejaVuSans-111"></use>
      <use x="210.693359" xlink:href="#DejaVuSans-111"></use>
      <use x="271.875" xlink:href="#DejaVuSans-116"></use>
      <use x="311.083984" xlink:href="#DejaVuSans-104"></use>
      <use x="374.462891" xlink:href="#DejaVuSans-101"></use>
      <use x="435.986328" xlink:href="#DejaVuSans-100"></use>
     </g>
    </g>
    <g id="line2d_121">
     <path d="M 379.251307 52.374219 
L 399.251307 52.374219 
" style="fill:none;stroke:#ff7f0e;stroke-linecap:square;stroke-width:1.5;"></path>
    </g>
    <g id="line2d_122"></g>
    <g id="text_16">
     <!-- fit -->
     <defs>
      <path d="M 37.109375 75.984375 
L 37.109375 68.5 
L 28.515625 68.5 
Q 23.6875 68.5 21.796875 66.546875 
Q 19.921875 64.59375 19.921875 59.515625 
L 19.921875 54.6875 
L 34.71875 54.6875 
L 34.71875 47.703125 
L 19.921875 47.703125 
L 19.921875 0 
L 10.890625 0 
L 10.890625 47.703125 
L 2.296875 47.703125 
L 2.296875 54.6875 
L 10.890625 54.6875 
L 10.890625 58.5 
Q 10.890625 67.625 15.140625 71.796875 
Q 19.390625 75.984375 28.609375 75.984375 
z
" id="DejaVuSans-102"></path>
     </defs>
     <g transform="translate(407.251307 55.874219)scale(0.1 -0.1)">
      <use xlink:href="#DejaVuSans-102"></use>
      <use x="35.205078" xlink:href="#DejaVuSans-105"></use>
      <use x="62.988281" xlink:href="#DejaVuSans-116"></use>
     </g>
    </g>
   </g>
  </g>
  <g id="axes_2">
   <g id="patch_8">
    <path d="M 547.361818 296.397656 
L 953.18 296.397656 
L 953.18 24.597656 
L 547.361818 24.597656 
z
" style="fill:#ffffff;"></path>
   </g>
   <g id="matplotlib.axis_3">
    <g id="xtick_42">
     <g id="line2d_123">
      <g>
       <use style="stroke:#000000;stroke-width:0.8;" x="629.477829" xlink:href="#m08f540f715" y="296.397656"></use>
      </g>
     </g>
     <g id="text_17">
      <!-- $\mathdefault{10^{4}}$ -->
      <g transform="translate(620.677829 310.996094)scale(0.1 -0.1)">
       <use transform="translate(0 0.684375)" xlink:href="#DejaVuSans-49"></use>
       <use transform="translate(63.623047 0.684375)" xlink:href="#DejaVuSans-48"></use>
       <use transform="translate(128.203125 38.965625)scale(0.7)" xlink:href="#DejaVuSans-52"></use>
      </g>
     </g>
    </g>
    <g id="xtick_43">
     <g id="line2d_124">
      <g>
       <use style="stroke:#000000;stroke-width:0.8;" x="714.592389" xlink:href="#m08f540f715" y="296.397656"></use>
      </g>
     </g>
     <g id="text_18">
      <!-- $\mathdefault{10^{5}}$ -->
      <g transform="translate(705.792389 310.996094)scale(0.1 -0.1)">
       <use transform="translate(0 0.684375)" xlink:href="#DejaVuSans-49"></use>
       <use transform="translate(63.623047 0.684375)" xlink:href="#DejaVuSans-48"></use>
       <use transform="translate(128.203125 38.965625)scale(0.7)" xlink:href="#DejaVuSans-53"></use>
      </g>
     </g>
    </g>
    <g id="xtick_44">
     <g id="line2d_125">
      <g>
       <use style="stroke:#000000;stroke-width:0.8;" x="799.706948" xlink:href="#m08f540f715" y="296.397656"></use>
      </g>
     </g>
     <g id="text_19">
      <!-- $\mathdefault{10^{6}}$ -->
      <g transform="translate(790.906948 310.996094)scale(0.1 -0.1)">
       <use transform="translate(0 0.765625)" xlink:href="#DejaVuSans-49"></use>
       <use transform="translate(63.623047 0.765625)" xlink:href="#DejaVuSans-48"></use>
       <use transform="translate(128.203125 39.046875)scale(0.7)" xlink:href="#DejaVuSans-54"></use>
      </g>
     </g>
    </g>
    <g id="xtick_45">
     <g id="line2d_126">
      <g>
       <use style="stroke:#000000;stroke-width:0.8;" x="884.821508" xlink:href="#m08f540f715" y="296.397656"></use>
      </g>
     </g>
     <g id="text_20">
      <!-- $\mathdefault{10^{7}}$ -->
      <g transform="translate(876.021508 310.996094)scale(0.1 -0.1)">
       <use transform="translate(0 0.684375)" xlink:href="#DejaVuSans-49"></use>
       <use transform="translate(63.623047 0.684375)" xlink:href="#DejaVuSans-48"></use>
       <use transform="translate(128.203125 38.965625)scale(0.7)" xlink:href="#DejaVuSans-55"></use>
      </g>
     </g>
    </g>
    <g id="xtick_46">
     <g id="line2d_127">
      <g>
       <use style="stroke:#000000;stroke-width:0.6;" x="569.985305" xlink:href="#m650044c311" y="296.397656"></use>
      </g>
     </g>
    </g>
    <g id="xtick_47">
     <g id="line2d_128">
      <g>
       <use style="stroke:#000000;stroke-width:0.6;" x="584.973235" xlink:href="#m650044c311" y="296.397656"></use>
      </g>
     </g>
    </g>
    <g id="xtick_48">
     <g id="line2d_129">
      <g>
       <use style="stroke:#000000;stroke-width:0.6;" x="595.607341" xlink:href="#m650044c311" y="296.397656"></use>
      </g>
     </g>
    </g>
    <g id="xtick_49">
     <g id="line2d_130">
      <g>
       <use style="stroke:#000000;stroke-width:0.6;" x="603.855794" xlink:href="#m650044c311" y="296.397656"></use>
      </g>
     </g>
    </g>
    <g id="xtick_50">
     <g id="line2d_131">
      <g>
       <use style="stroke:#000000;stroke-width:0.6;" x="610.595271" xlink:href="#m650044c311" y="296.397656"></use>
      </g>
     </g>
    </g>
    <g id="xtick_51">
     <g id="line2d_132">
      <g>
       <use style="stroke:#000000;stroke-width:0.6;" x="616.293417" xlink:href="#m650044c311" y="296.397656"></use>
      </g>
     </g>
    </g>
    <g id="xtick_52">
     <g id="line2d_133">
      <g>
       <use style="stroke:#000000;stroke-width:0.6;" x="621.229376" xlink:href="#m650044c311" y="296.397656"></use>
      </g>
     </g>
    </g>
    <g id="xtick_53">
     <g id="line2d_134">
      <g>
       <use style="stroke:#000000;stroke-width:0.6;" x="625.583201" xlink:href="#m650044c311" y="296.397656"></use>
      </g>
     </g>
    </g>
    <g id="xtick_54">
     <g id="line2d_135">
      <g>
       <use style="stroke:#000000;stroke-width:0.6;" x="655.099865" xlink:href="#m650044c311" y="296.397656"></use>
      </g>
     </g>
    </g>
    <g id="xtick_55">
     <g id="line2d_136">
      <g>
       <use style="stroke:#000000;stroke-width:0.6;" x="670.087795" xlink:href="#m650044c311" y="296.397656"></use>
      </g>
     </g>
    </g>
    <g id="xtick_56">
     <g id="line2d_137">
      <g>
       <use style="stroke:#000000;stroke-width:0.6;" x="680.7219" xlink:href="#m650044c311" y="296.397656"></use>
      </g>
     </g>
    </g>
    <g id="xtick_57">
     <g id="line2d_138">
      <g>
       <use style="stroke:#000000;stroke-width:0.6;" x="688.970353" xlink:href="#m650044c311" y="296.397656"></use>
      </g>
     </g>
    </g>
    <g id="xtick_58">
     <g id="line2d_139">
      <g>
       <use style="stroke:#000000;stroke-width:0.6;" x="695.70983" xlink:href="#m650044c311" y="296.397656"></use>
      </g>
     </g>
    </g>
    <g id="xtick_59">
     <g id="line2d_140">
      <g>
       <use style="stroke:#000000;stroke-width:0.6;" x="701.407977" xlink:href="#m650044c311" y="296.397656"></use>
      </g>
     </g>
    </g>
    <g id="xtick_60">
     <g id="line2d_141">
      <g>
       <use style="stroke:#000000;stroke-width:0.6;" x="706.343936" xlink:href="#m650044c311" y="296.397656"></use>
      </g>
     </g>
    </g>
    <g id="xtick_61">
     <g id="line2d_142">
      <g>
       <use style="stroke:#000000;stroke-width:0.6;" x="710.69776" xlink:href="#m650044c311" y="296.397656"></use>
      </g>
     </g>
    </g>
    <g id="xtick_62">
     <g id="line2d_143">
      <g>
       <use style="stroke:#000000;stroke-width:0.6;" x="740.214424" xlink:href="#m650044c311" y="296.397656"></use>
      </g>
     </g>
    </g>
    <g id="xtick_63">
     <g id="line2d_144">
      <g>
       <use style="stroke:#000000;stroke-width:0.6;" x="755.202354" xlink:href="#m650044c311" y="296.397656"></use>
      </g>
     </g>
    </g>
    <g id="xtick_64">
     <g id="line2d_145">
      <g>
       <use style="stroke:#000000;stroke-width:0.6;" x="765.83646" xlink:href="#m650044c311" y="296.397656"></use>
      </g>
     </g>
    </g>
    <g id="xtick_65">
     <g id="line2d_146">
      <g>
       <use style="stroke:#000000;stroke-width:0.6;" x="774.084913" xlink:href="#m650044c311" y="296.397656"></use>
      </g>
     </g>
    </g>
    <g id="xtick_66">
     <g id="line2d_147">
      <g>
       <use style="stroke:#000000;stroke-width:0.6;" x="780.82439" xlink:href="#m650044c311" y="296.397656"></use>
      </g>
     </g>
    </g>
    <g id="xtick_67">
     <g id="line2d_148">
      <g>
       <use style="stroke:#000000;stroke-width:0.6;" x="786.522536" xlink:href="#m650044c311" y="296.397656"></use>
      </g>
     </g>
    </g>
    <g id="xtick_68">
     <g id="line2d_149">
      <g>
       <use style="stroke:#000000;stroke-width:0.6;" x="791.458495" xlink:href="#m650044c311" y="296.397656"></use>
      </g>
     </g>
    </g>
    <g id="xtick_69">
     <g id="line2d_150">
      <g>
       <use style="stroke:#000000;stroke-width:0.6;" x="795.81232" xlink:href="#m650044c311" y="296.397656"></use>
      </g>
     </g>
    </g>
    <g id="xtick_70">
     <g id="line2d_151">
      <g>
       <use style="stroke:#000000;stroke-width:0.6;" x="825.328984" xlink:href="#m650044c311" y="296.397656"></use>
      </g>
     </g>
    </g>
    <g id="xtick_71">
     <g id="line2d_152">
      <g>
       <use style="stroke:#000000;stroke-width:0.6;" x="840.316914" xlink:href="#m650044c311" y="296.397656"></use>
      </g>
     </g>
    </g>
    <g id="xtick_72">
     <g id="line2d_153">
      <g>
       <use style="stroke:#000000;stroke-width:0.6;" x="850.951019" xlink:href="#m650044c311" y="296.397656"></use>
      </g>
     </g>
    </g>
    <g id="xtick_73">
     <g id="line2d_154">
      <g>
       <use style="stroke:#000000;stroke-width:0.6;" x="859.199472" xlink:href="#m650044c311" y="296.397656"></use>
      </g>
     </g>
    </g>
    <g id="xtick_74">
     <g id="line2d_155">
      <g>
       <use style="stroke:#000000;stroke-width:0.6;" x="865.938949" xlink:href="#m650044c311" y="296.397656"></use>
      </g>
     </g>
    </g>
    <g id="xtick_75">
     <g id="line2d_156">
      <g>
       <use style="stroke:#000000;stroke-width:0.6;" x="871.637095" xlink:href="#m650044c311" y="296.397656"></use>
      </g>
     </g>
    </g>
    <g id="xtick_76">
     <g id="line2d_157">
      <g>
       <use style="stroke:#000000;stroke-width:0.6;" x="876.573055" xlink:href="#m650044c311" y="296.397656"></use>
      </g>
     </g>
    </g>
    <g id="xtick_77">
     <g id="line2d_158">
      <g>
       <use style="stroke:#000000;stroke-width:0.6;" x="880.926879" xlink:href="#m650044c311" y="296.397656"></use>
      </g>
     </g>
    </g>
    <g id="xtick_78">
     <g id="line2d_159">
      <g>
       <use style="stroke:#000000;stroke-width:0.6;" x="910.443543" xlink:href="#m650044c311" y="296.397656"></use>
      </g>
     </g>
    </g>
    <g id="xtick_79">
     <g id="line2d_160">
      <g>
       <use style="stroke:#000000;stroke-width:0.6;" x="925.431473" xlink:href="#m650044c311" y="296.397656"></use>
      </g>
     </g>
    </g>
    <g id="xtick_80">
     <g id="line2d_161">
      <g>
       <use style="stroke:#000000;stroke-width:0.6;" x="936.065578" xlink:href="#m650044c311" y="296.397656"></use>
      </g>
     </g>
    </g>
    <g id="xtick_81">
     <g id="line2d_162">
      <g>
       <use style="stroke:#000000;stroke-width:0.6;" x="944.314032" xlink:href="#m650044c311" y="296.397656"></use>
      </g>
     </g>
    </g>
    <g id="xtick_82">
     <g id="line2d_163">
      <g>
       <use style="stroke:#000000;stroke-width:0.6;" x="951.053508" xlink:href="#m650044c311" y="296.397656"></use>
      </g>
     </g>
    </g>
    <g id="text_21">
     <!-- $n$ -->
     <g transform="translate(746.430909 326.193906)scale(0.12 -0.12)">
      <use xlink:href="#DejaVuSans-Oblique-110"></use>
     </g>
    </g>
   </g>
   <g id="matplotlib.axis_4">
    <g id="ytick_60">
     <g id="line2d_164">
      <g>
       <use style="stroke:#000000;stroke-width:0.8;" x="547.361818" xlink:href="#m46bdc5ad6f" y="278.277656"></use>
      </g>
     </g>
     <g id="text_22">
      <!-- 0.6 -->
      <defs>
       <path d="M 10.6875 12.40625 
L 21 12.40625 
L 21 0 
L 10.6875 0 
z
" id="DejaVuSans-46"></path>
      </defs>
      <g transform="translate(524.458693 282.076875)scale(0.1 -0.1)">
       <use xlink:href="#DejaVuSans-48"></use>
       <use x="63.623047" xlink:href="#DejaVuSans-46"></use>
       <use x="95.410156" xlink:href="#DejaVuSans-54"></use>
      </g>
     </g>
    </g>
    <g id="ytick_61">
     <g id="line2d_165">
      <g>
       <use style="stroke:#000000;stroke-width:0.8;" x="547.361818" xlink:href="#m46bdc5ad6f" y="242.037656"></use>
      </g>
     </g>
     <g id="text_23">
      <!-- 0.8 -->
      <g transform="translate(524.458693 245.836875)scale(0.1 -0.1)">
       <use xlink:href="#DejaVuSans-48"></use>
       <use x="63.623047" xlink:href="#DejaVuSans-46"></use>
       <use x="95.410156" xlink:href="#DejaVuSans-56"></use>
      </g>
     </g>
    </g>
    <g id="ytick_62">
     <g id="line2d_166">
      <g>
       <use style="stroke:#000000;stroke-width:0.8;" x="547.361818" xlink:href="#m46bdc5ad6f" y="205.797656"></use>
      </g>
     </g>
     <g id="text_24">
      <!-- 1.0 -->
      <g transform="translate(524.458693 209.596875)scale(0.1 -0.1)">
       <use xlink:href="#DejaVuSans-49"></use>
       <use x="63.623047" xlink:href="#DejaVuSans-46"></use>
       <use x="95.410156" xlink:href="#DejaVuSans-48"></use>
      </g>
     </g>
    </g>
    <g id="ytick_63">
     <g id="line2d_167">
      <g>
       <use style="stroke:#000000;stroke-width:0.8;" x="547.361818" xlink:href="#m46bdc5ad6f" y="169.557656"></use>
      </g>
     </g>
     <g id="text_25">
      <!-- 1.2 -->
      <g transform="translate(524.458693 173.356875)scale(0.1 -0.1)">
       <use xlink:href="#DejaVuSans-49"></use>
       <use x="63.623047" xlink:href="#DejaVuSans-46"></use>
       <use x="95.410156" xlink:href="#DejaVuSans-50"></use>
      </g>
     </g>
    </g>
    <g id="ytick_64">
     <g id="line2d_168">
      <g>
       <use style="stroke:#000000;stroke-width:0.8;" x="547.361818" xlink:href="#m46bdc5ad6f" y="133.317656"></use>
      </g>
     </g>
     <g id="text_26">
      <!-- 1.4 -->
      <g transform="translate(524.458693 137.116875)scale(0.1 -0.1)">
       <use xlink:href="#DejaVuSans-49"></use>
       <use x="63.623047" xlink:href="#DejaVuSans-46"></use>
       <use x="95.410156" xlink:href="#DejaVuSans-52"></use>
      </g>
     </g>
    </g>
    <g id="ytick_65">
     <g id="line2d_169">
      <g>
       <use style="stroke:#000000;stroke-width:0.8;" x="547.361818" xlink:href="#m46bdc5ad6f" y="97.077656"></use>
      </g>
     </g>
     <g id="text_27">
      <!-- 1.6 -->
      <g transform="translate(524.458693 100.876875)scale(0.1 -0.1)">
       <use xlink:href="#DejaVuSans-49"></use>
       <use x="63.623047" xlink:href="#DejaVuSans-46"></use>
       <use x="95.410156" xlink:href="#DejaVuSans-54"></use>
      </g>
     </g>
    </g>
    <g id="ytick_66">
     <g id="line2d_170">
      <g>
       <use style="stroke:#000000;stroke-width:0.8;" x="547.361818" xlink:href="#m46bdc5ad6f" y="60.837656"></use>
      </g>
     </g>
     <g id="text_28">
      <!-- 1.8 -->
      <g transform="translate(524.458693 64.636875)scale(0.1 -0.1)">
       <use xlink:href="#DejaVuSans-49"></use>
       <use x="63.623047" xlink:href="#DejaVuSans-46"></use>
       <use x="95.410156" xlink:href="#DejaVuSans-56"></use>
      </g>
     </g>
    </g>
    <g id="ytick_67">
     <g id="line2d_171">
      <g>
       <use style="stroke:#000000;stroke-width:0.8;" x="547.361818" xlink:href="#m46bdc5ad6f" y="24.597656"></use>
      </g>
     </g>
     <g id="text_29">
      <!-- 2.0 -->
      <g transform="translate(524.458693 28.396875)scale(0.1 -0.1)">
       <use xlink:href="#DejaVuSans-50"></use>
       <use x="63.623047" xlink:href="#DejaVuSans-46"></use>
       <use x="95.410156" xlink:href="#DejaVuSans-48"></use>
      </g>
     </g>
    </g>
    <g id="text_30">
     <!-- ratio -->
     <g transform="translate(517.963068 174.331406)rotate(-90)scale(0.12 -0.12)">
      <use xlink:href="#DejaVuSans-114"></use>
      <use x="41.113281" xlink:href="#DejaVuSans-97"></use>
      <use x="102.392578" xlink:href="#DejaVuSans-116"></use>
      <use x="141.601562" xlink:href="#DejaVuSans-105"></use>
      <use x="169.384766" xlink:href="#DejaVuSans-111"></use>
     </g>
    </g>
   </g>
   <g id="line2d_172">
    <path clip-path="url(#pb291ce892f)" d="M 547.635149 -1 
L 551.501045 152.88258 
L 555.647745 119.601223 
L 559.779959 129.513255 
L 563.912539 205.770202 
L 568.060066 183.443025 
L 572.208882 224.412231 
L 576.353274 275.682584 
L 580.492126 267.748714 
L 584.632829 250.663417 
L 588.775336 249.275862 
L 592.914843 232.929061 
L 597.057126 57.4435 
L 601.197075 175.426651 
L 605.337554 84.294387 
L 609.478879 188.432813 
L 613.619374 258.147571 
L 617.76097 215.215086 
L 621.902439 165.61018 
L 626.044425 179.836697 
L 630.186266 251.681869 
L 634.327745 268.698703 
L 638.468428 167.925346 
L 642.608604 246.173156 
L 646.749619 147.484711 
L 650.890728 162.26088 
L 655.031417 189.842347 
L 659.172512 172.321827 
L 663.313555 217.421902 
L 667.454885 260.723446 
L 671.59618 203.247626 
L 675.736798 217.269098 
L 679.877857 234.61544 
L 684.019183 229.946714 
L 688.160142 248.538457 
L 692.300755 266.447649 
L 696.441528 261.972983 
L 700.582703 73.413131 
L 704.723609 196.053851 
L 708.864566 141.124335 
L 713.005551 207.413542 
L 717.146539 191.978961 
L 721.287481 244.760922 
L 725.42837 186.939858 
L 729.569351 250.717246 
L 733.710364 255.254057 
L 737.851338 272.781013 
L 741.992234 246.838447 
L 746.133172 261.826714 
L 750.274139 148.691608 
L 754.415058 160.085234 
L 758.556001 153.907643 
L 762.696977 162.238847 
L 766.837916 208.151541 
L 770.978815 237.778575 
L 775.119758 192.558659 
L 779.260728 197.376679 
L 783.401646 239.797508 
L 787.54258 264.665503 
L 791.683525 222.773297 
L 795.824454 221.731073 
L 799.965388 214.335148 
L 804.106318 134.429882 
L 808.247258 209.038337 
L 812.388197 141.369157 
L 816.529128 225.513641 
L 820.670065 247.028415 
L 824.811006 239.085645 
L 828.951942 179.182455 
L 833.092875 214.097075 
L 837.233813 219.556431 
L 841.37475 230.152677 
L 845.515687 239.471035 
L 849.656623 262.266807 
L 853.797557 98.812622 
L 857.938493 165.943955 
L 862.079427 127.498966 
L 866.22036 186.456909 
L 870.361297 164.581791 
L 874.502235 202.621162 
L 878.643172 189.028756 
L 882.784103 220.735615 
L 886.925036 234.922592 
L 891.065973 249.026438 
L 895.206909 223.718632 
L 899.347844 250.534644 
L 903.488779 162.403661 
L 907.629712 126.029425 
L 911.770651 166.522357 
L 915.911586 116.608162 
L 920.05252 210.471578 
L 924.193454 225.884169 
L 928.33439 194.210099 
L 932.475326 151.227101 
L 936.616261 184.558529 
L 940.757195 228.171685 
L 944.898129 190.454706 
L 949.039064 183.002111 
L 953.18 229.393228 
" style="fill:none;stroke:#008000;stroke-linecap:square;stroke-width:1.5;"></path>
   </g>
   <g id="line2d_173">
    <path clip-path="url(#pb291ce892f)" d="M 545.239946 296.397656 
L 545.239946 24.597656 
" style="fill:none;stroke:#ff0000;stroke-linecap:square;stroke-opacity:0.2;stroke-width:1.5;"></path>
   </g>
   <g id="line2d_174">
    <path clip-path="url(#pb291ce892f)" d="M 570.861982 296.397656 
L 570.861982 24.597656 
" style="fill:none;stroke:#ff0000;stroke-linecap:square;stroke-opacity:0.2;stroke-width:1.5;"></path>
   </g>
   <g id="line2d_175">
    <path clip-path="url(#pb291ce892f)" d="M 596.484017 296.397656 
L 596.484017 24.597656 
" style="fill:none;stroke:#ff0000;stroke-linecap:square;stroke-opacity:0.2;stroke-width:1.5;"></path>
   </g>
   <g id="line2d_176">
    <path clip-path="url(#pb291ce892f)" d="M 622.106053 296.397656 
L 622.106053 24.597656 
" style="fill:none;stroke:#ff0000;stroke-linecap:square;stroke-opacity:0.2;stroke-width:1.5;"></path>
   </g>
   <g id="line2d_177">
    <path clip-path="url(#pb291ce892f)" d="M 647.728088 296.397656 
L 647.728088 24.597656 
" style="fill:none;stroke:#ff0000;stroke-linecap:square;stroke-opacity:0.2;stroke-width:1.5;"></path>
   </g>
   <g id="line2d_178">
    <path clip-path="url(#pb291ce892f)" d="M 673.350124 296.397656 
L 673.350124 24.597656 
" style="fill:none;stroke:#ff0000;stroke-linecap:square;stroke-opacity:0.2;stroke-width:1.5;"></path>
   </g>
   <g id="line2d_179">
    <path clip-path="url(#pb291ce892f)" d="M 698.972159 296.397656 
L 698.972159 24.597656 
" style="fill:none;stroke:#ff0000;stroke-linecap:square;stroke-opacity:0.2;stroke-width:1.5;"></path>
   </g>
   <g id="line2d_180">
    <path clip-path="url(#pb291ce892f)" d="M 724.594194 296.397656 
L 724.594194 24.597656 
" style="fill:none;stroke:#ff0000;stroke-linecap:square;stroke-opacity:0.2;stroke-width:1.5;"></path>
   </g>
   <g id="line2d_181">
    <path clip-path="url(#pb291ce892f)" d="M 750.21623 296.397656 
L 750.21623 24.597656 
" style="fill:none;stroke:#ff0000;stroke-linecap:square;stroke-opacity:0.2;stroke-width:1.5;"></path>
   </g>
   <g id="line2d_182">
    <path clip-path="url(#pb291ce892f)" d="M 775.838265 296.397656 
L 775.838265 24.597656 
" style="fill:none;stroke:#ff0000;stroke-linecap:square;stroke-opacity:0.2;stroke-width:1.5;"></path>
   </g>
   <g id="line2d_183">
    <path clip-path="url(#pb291ce892f)" d="M 801.460301 296.397656 
L 801.460301 24.597656 
" style="fill:none;stroke:#ff0000;stroke-linecap:square;stroke-opacity:0.2;stroke-width:1.5;"></path>
   </g>
   <g id="line2d_184">
    <path clip-path="url(#pb291ce892f)" d="M 827.082336 296.397656 
L 827.082336 24.597656 
" style="fill:none;stroke:#ff0000;stroke-linecap:square;stroke-opacity:0.2;stroke-width:1.5;"></path>
   </g>
   <g id="line2d_185">
    <path clip-path="url(#pb291ce892f)" d="M 852.704372 296.397656 
L 852.704372 24.597656 
" style="fill:none;stroke:#ff0000;stroke-linecap:square;stroke-opacity:0.2;stroke-width:1.5;"></path>
   </g>
   <g id="line2d_186">
    <path clip-path="url(#pb291ce892f)" d="M 878.326407 296.397656 
L 878.326407 24.597656 
" style="fill:none;stroke:#ff0000;stroke-linecap:square;stroke-opacity:0.2;stroke-width:1.5;"></path>
   </g>
   <g id="line2d_187">
    <path clip-path="url(#pb291ce892f)" d="M 903.948442 296.397656 
L 903.948442 24.597656 
" style="fill:none;stroke:#ff0000;stroke-linecap:square;stroke-opacity:0.2;stroke-width:1.5;"></path>
   </g>
   <g id="line2d_188">
    <path clip-path="url(#pb291ce892f)" d="M 929.570478 296.397656 
L 929.570478 24.597656 
" style="fill:none;stroke:#ff0000;stroke-linecap:square;stroke-opacity:0.2;stroke-width:1.5;"></path>
   </g>
   <g id="line2d_189">
    <path clip-path="url(#pb291ce892f)" d="M 547.361818 205.797656 
L 953.18 205.797656 
" style="fill:none;stroke:#ff0000;stroke-linecap:square;stroke-opacity:0.2;stroke-width:1.5;"></path>
   </g>
   <g id="patch_9">
    <path d="M 547.361818 296.397656 
L 547.361818 24.597656 
" style="fill:none;stroke:#000000;stroke-linecap:square;stroke-linejoin:miter;stroke-width:0.8;"></path>
   </g>
   <g id="patch_10">
    <path d="M 953.18 296.397656 
L 953.18 24.597656 
" style="fill:none;stroke:#000000;stroke-linecap:square;stroke-linejoin:miter;stroke-width:0.8;"></path>
   </g>
   <g id="patch_11">
    <path d="M 547.361818 296.397656 
L 953.18 296.397656 
" style="fill:none;stroke:#000000;stroke-linecap:square;stroke-linejoin:miter;stroke-width:0.8;"></path>
   </g>
   <g id="patch_12">
    <path d="M 547.361818 24.597656 
L 953.18 24.597656 
" style="fill:none;stroke:#000000;stroke-linecap:square;stroke-linejoin:miter;stroke-width:0.8;"></path>
   </g>
   <g id="text_31">
    <!-- Ratio to fit -->
    <defs>
     <path d="M 44.390625 34.1875 
Q 47.5625 33.109375 50.5625 29.59375 
Q 53.5625 26.078125 56.59375 19.921875 
L 66.609375 0 
L 56 0 
L 46.6875 18.703125 
Q 43.0625 26.03125 39.671875 28.421875 
Q 36.28125 30.8125 30.421875 30.8125 
L 19.671875 30.8125 
L 19.671875 0 
L 9.8125 0 
L 9.8125 72.90625 
L 32.078125 72.90625 
Q 44.578125 72.90625 50.734375 67.671875 
Q 56.890625 62.453125 56.890625 51.90625 
Q 56.890625 45.015625 53.6875 40.46875 
Q 50.484375 35.9375 44.390625 34.1875 
z
M 19.671875 64.796875 
L 19.671875 38.921875 
L 32.078125 38.921875 
Q 39.203125 38.921875 42.84375 42.21875 
Q 46.484375 45.515625 46.484375 51.90625 
Q 46.484375 58.296875 42.84375 61.546875 
Q 39.203125 64.796875 32.078125 64.796875 
z
" id="DejaVuSans-82"></path>
    </defs>
    <g transform="translate(711.0588 18.597656)scale(0.15 -0.15)">
     <use xlink:href="#DejaVuSans-82"></use>
     <use x="67.232422" xlink:href="#DejaVuSans-97"></use>
     <use x="128.511719" xlink:href="#DejaVuSans-116"></use>
     <use x="167.720703" xlink:href="#DejaVuSans-105"></use>
     <use x="195.503906" xlink:href="#DejaVuSans-111"></use>
     <use x="256.685547" xlink:href="#DejaVuSans-32"></use>
     <use x="288.472656" xlink:href="#DejaVuSans-116"></use>
     <use x="327.681641" xlink:href="#DejaVuSans-111"></use>
     <use x="388.863281" xlink:href="#DejaVuSans-32"></use>
     <use x="420.650391" xlink:href="#DejaVuSans-102"></use>
     <use x="455.855469" xlink:href="#DejaVuSans-105"></use>
     <use x="483.638672" xlink:href="#DejaVuSans-116"></use>
    </g>
   </g>
   <g id="legend_2">
    <g id="patch_13">
     <path d="M 891.12375 47.275781 
L 946.18 47.275781 
Q 948.18 47.275781 948.18 45.275781 
L 948.18 31.597656 
Q 948.18 29.597656 946.18 29.597656 
L 891.12375 29.597656 
Q 889.12375 29.597656 889.12375 31.597656 
L 889.12375 45.275781 
Q 889.12375 47.275781 891.12375 47.275781 
z
" style="fill:#ffffff;opacity:0.8;stroke:#cccccc;stroke-linejoin:miter;"></path>
    </g>
    <g id="line2d_190">
     <path d="M 893.12375 37.696094 
L 913.12375 37.696094 
" style="fill:none;stroke:#008000;stroke-linecap:square;stroke-width:1.5;"></path>
    </g>
    <g id="line2d_191"></g>
    <g id="text_32">
     <!-- ratio -->
     <g transform="translate(921.12375 41.196094)scale(0.1 -0.1)">
      <use xlink:href="#DejaVuSans-114"></use>
      <use x="41.113281" xlink:href="#DejaVuSans-97"></use>
      <use x="102.392578" xlink:href="#DejaVuSans-116"></use>
      <use x="141.601562" xlink:href="#DejaVuSans-105"></use>
      <use x="169.384766" xlink:href="#DejaVuSans-111"></use>
     </g>
    </g>
   </g>
  </g>
 </g>
 <defs>
  <clipPath id="pb16403a642">
   <rect height="271.8" width="405.818182" x="60.38" y="24.597656"></rect>
  </clipPath>
  <clipPath id="pb291ce892f">
   <rect height="271.8" width="405.818182" x="547.361818" y="24.597656"></rect>
  </clipPath>
 </defs>
</svg>
